<?xml version="1.0" encoding="UTF-8"?>
<svg version="1.1" xmlns="http://www.w3.org/2000/svg" width="600" height="600">
<path d="M0 0 C198 0 396 0 600 0 C600 198 600 396 600 600 C402 600 204 600 0 600 C0 402 0 204 0 0 Z " fill="#000000" transform="translate(0,0)"/>
<path d="M0 0 C-0.66 1.65 -1.32 3.3 -2 5 C0.475 2.525 0.475 2.525 3 0 C3.33 0.99 3.66 1.98 4 3 C2.76585956 5.34282452 1.50753507 7.48292584 0.0625 9.6875 C-0.51661133 10.59725586 -0.51661133 10.59725586 -1.10742188 11.52539062 C-2.06246419 13.02280265 -3.03006086 14.51219401 -4 16 C-3.62488281 15.49210938 -3.24976563 14.98421875 -2.86328125 14.4609375 C0.307367 10.19613608 3.55824456 6.04912405 7 2 C8.15796631 5.47389892 7.62250364 6.3710363 6.05834961 9.52758789 C5.72971924 10.15785889 5.40108887 10.78812988 5.0625 11.4375 C4.7126001 12.11997803 4.3627002 12.80245605 4.00219727 13.50561523 C-5.04110897 30.85807788 -14.92892612 47.72310143 -25.75585938 64.01831055 C-29.53448708 69.71100514 -33.1390032 75.46192684 -36.5625 81.375 C-44.42627791 94.94805252 -44.42627791 94.94805252 -47 98 C-47.66 98 -48.32 98 -49 98 C-49.37202686 91.7788842 -48.55815008 87.89274603 -45.625 82.4375 C-45.26631836 81.74696533 -44.90763672 81.05643066 -44.53808594 80.3449707 C-41.32599443 74.3081929 -37.6159192 68.66562069 -33.7421875 63.0390625 C-30.48738836 58.29759236 -27.43404582 53.4316777 -24.375 48.5625 C-23.84165039 47.71453857 -23.30830078 46.86657715 -22.75878906 45.99291992 C-21.50426133 43.99627429 -20.25165971 41.99844382 -19 40 C-22.95659591 45.17574619 -26.71812214 50.43438131 -30.30078125 55.875 C-30.78145554 56.60259521 -31.26212982 57.33019043 -31.75737 58.07983398 C-32.76790684 59.61173647 -33.77707142 61.14454501 -34.78491211 62.67822266 C-36.29295837 64.97029872 -37.80931684 67.25671593 -39.32617188 69.54296875 C-45.26986524 78.5477735 -50.82510574 87.68096536 -55.9909668 97.15359497 C-57.43840516 99.80222681 -58.90717233 102.43888362 -60.37471008 105.07641602 C-61.34324401 106.81790075 -62.30839871 108.56126352 -63.2734375 110.3046875 C-65 113 -65 113 -68 115 C-69.79557276 113.20442724 -69.29934938 110.68245838 -69.375 108.25 C-69.19048008 87.19166458 -51.7508116 68.70421543 -39.46655273 52.86108398 C-36.47991612 48.99783937 -33.65252617 45.10052354 -31 41 C-52.85621589 67.32185468 -68.6065822 90.85881818 -75.9453125 124.58203125 C-77.10122619 128.32804785 -78.53214908 130.95942142 -81 134 C-81.99 134 -82.98 134 -84 134 C-84.34437175 125.44523183 -83.49364413 117.75242412 -81.5 109.4375 C-81.10059204 107.74838501 -81.10059204 107.74838501 -80.69311523 106.02514648 C-77.09341414 91.51613668 -71.66402725 78.23930938 -63 66 C-62.1843525 64.77291969 -61.37128079 63.54411706 -60.5625 62.3125 C-60.046875 61.549375 -59.53125 60.78625 -59 60 C-76.93625011 79.70773161 -87.49797224 106.02758436 -97.20898438 130.48461914 C-99.44817992 135.9782315 -101.27479654 140.18233562 -106 144 C-106.7528125 144.64324219 -107.505625 145.28648437 -108.28125 145.94921875 C-109.37953125 146.80966797 -109.37953125 146.80966797 -110.5 147.6875 C-111.2321875 148.26886719 -111.964375 148.85023438 -112.71875 149.44921875 C-116.48509146 152.00955704 -119.74750392 153.27974563 -124.3125 153.125 C-125.529375 153.08375 -126.74625 153.0425 -128 153 C-128 152.34 -128 151.68 -128 151 C-126.845 150.484375 -125.69 149.96875 -124.5 149.4375 C-110.95252728 142.56802178 -105.71580944 129.82507083 -99.65145874 116.65505981 C-98.66757424 114.5192452 -97.67618866 112.38705306 -96.68286133 110.25561523 C-93.89628734 104.27205938 -91.12760176 98.28051024 -88.375 92.28125 C-84.87457191 84.69686284 -81.19271397 77.29134514 -77 70.0625 C-76.63285889 69.42449463 -76.26571777 68.78648926 -75.88745117 68.12915039 C-69.22574748 56.9633972 -61.0297328 47.5562252 -51.81689453 38.48071289 C-50.12479521 36.81229808 -48.44651874 35.13085543 -46.76953125 33.44726562 C-40.15702279 26.85194288 -33.35648429 20.76664055 -26 15 C-25.36304199 14.48864502 -24.72608398 13.97729004 -24.06982422 13.45043945 C-7.30636008 0 -7.30636008 0 0 0 Z " fill="#F5F5F5" transform="translate(184,234)"/>
<path d="M0 0 C2.46800047 1.15173355 4.04783565 2.04783565 6 4 C5.67 2.68 5.34 1.36 5 0 C18.32855208 1.53940879 29.86873691 13.92138724 39.3828125 22.62890625 C41.46162185 24.51224547 43.56408853 26.35159963 45.6875 28.18359375 C58.86247651 39.70129203 71.26940542 51.74622853 80 67 C80.78492222 68.31394192 81.57008618 69.62773945 82.35546875 70.94140625 C90.87345322 85.49374433 97.57076031 101.02015103 104.52246094 116.359375 C105.93842184 119.47542983 107.37365814 122.58195925 108.8125 125.6875 C109.21976318 126.60039795 109.62702637 127.5132959 110.04663086 128.45385742 C114.08817331 137.11384447 119.63222913 144.16528794 128 149 C129.67623498 149.98387706 131.34634594 150.97862543 133 152 C133 152.33 133 152.66 133 153 C124.96801127 153.77728923 120.4203132 151.77105843 114 147 C113.15320679 146.38838013 113.15320679 146.38838013 112.28930664 145.7644043 C107.28596867 141.87916808 105.05183849 137.86347707 102.6875 132.0625 C102.31488037 131.19568604 101.94226074 130.32887207 101.55834961 129.43579102 C100.35513778 126.63079563 99.17682871 123.81615396 98 121 C86.65739935 94.20595301 74.64839482 69.88215023 54 49 C53.44119141 48.4328125 52.88238281 47.865625 52.30664062 47.28125 C48.89617627 43.8283957 45.45919703 40.40399708 42 37 C44.87490857 40.84058299 48.09041836 44.10118191 51.53344727 47.41650391 C73.02794987 68.18590889 88.36259317 97.08158073 89.05859375 127.56640625 C89.06194996 129.71102381 89.0340373 131.85564993 89 134 C87.12939453 133.71069336 87.12939453 133.71069336 85 133 C81.30093042 126.97679803 79.73885325 120.76507922 78.125 113.9375 C70.97687885 85.32455972 54.95197553 64.15630413 36.42919922 41.73779297 C33.24122541 37.86146951 30.12482353 33.92727066 27 30 C30.18556284 34.30481465 33.42533678 38.55571352 36.74682617 42.75683594 C74.76615615 90.84505845 74.76615615 90.84505845 74 114 C73.01 114 72.02 114 71 114 C66.21995693 109.04126373 63.3782641 101.94751267 60.25 95.875 C56.07536149 87.78462139 51.42687542 80.25877621 46.23681641 72.78857422 C44.18441611 69.8205749 42.18686204 66.81637438 40.1875 63.8125 C39.78998535 63.21719482 39.3924707 62.62188965 38.98291016 62.00854492 C33.24151947 53.39195408 27.62763934 44.69110417 22 36 C25.20613411 42.1859954 28.64859595 48.10849906 32.5625 53.875 C36.82408756 60.16670414 40.91954303 66.54989973 44.9375 73 C45.4931665 73.88413574 46.04883301 74.76827148 46.62133789 75.67919922 C51.30675742 83.23818001 54.47597332 88.95650689 54 98 C50.15553128 96.52571536 48.87803513 94.62973712 46.8984375 91.08203125 C46.33133057 90.08308838 45.76422363 89.08414551 45.17993164 88.05493164 C44.5843042 86.9849292 43.98867676 85.91492676 43.375 84.8125 C37.51226938 74.50485215 37.51226938 74.50485215 31.0625 64.5625 C21.02201494 49.89487974 12.17490323 34.38403972 3.625 18.8125 C3.07158936 17.81549072 2.51817871 16.81848145 1.94799805 15.79125977 C1.18869995 14.38831665 1.18869995 14.38831665 0.4140625 12.95703125 C-0.0298584 12.14210205 -0.4737793 11.32717285 -0.93115234 10.48754883 C-2.14259295 7.6681408 -2.60628397 5.03381607 -3 2 C0.91457985 4.8395916 3.30820069 7.62527172 5.8125 11.75 C6.41707031 12.73484375 7.02164062 13.7196875 7.64453125 14.734375 C8.09183594 15.48203125 8.53914063 16.2296875 9 17 C8.60167969 16.27554688 8.20335937 15.55109375 7.79296875 14.8046875 C5.10994868 9.90866547 2.44255712 5.02081186 0 0 Z " fill="#F2F2F2" transform="translate(412,234)"/>
<path d="M0 0 C1.75109502 2.29323867 3.25897117 4.48725881 4.75 6.9375 C5.16121094 7.58396484 5.57242188 8.23042969 5.99609375 8.89648438 C9 13.7017364 9 13.7017364 9 16 C7.171875 17.4375 7.171875 17.4375 4.75 19 C3.96109375 19.515625 3.1721875 20.03125 2.359375 20.5625 C-3.2826087 24 -3.2826087 24 -7 24 C-7.66 25.32 -8.32 26.64 -9 28 C-9.99 28 -10.98 28 -12 28 C-11.505 31.465 -11.505 31.465 -11 35 C-10.34 34.67 -9.68 34.34 -9 34 C-9 34.66 -9 35.32 -9 36 C-8.01 36 -7.02 36 -6 36 C-6 36.66 -6 37.32 -6 38 C-0.158256 38.35050464 3.8531808 38.16727335 9 35 C7.49203266 38.77839007 5.3019872 40.64563017 2.125 43.125 C1.26132812 43.80820312 0.39765625 44.49140625 -0.4921875 45.1953125 C-2.62015241 46.72665173 -4.6184787 47.92554621 -7 49 C-4.72930578 49.81289053 -2.45845099 50.62532738 -0.1875 51.4375 C0.45509766 51.66759766 1.09769531 51.89769531 1.75976562 52.13476562 C4.49928283 53.11417851 7.23986086 54.07995362 10 55 C10.495 54.01 10.495 54.01 11 53 C11.66 53.66 12.32 54.32 13 55 C16.60113148 56.20037716 20.18897844 57 24 57 C24 57.66 24 58.32 24 59 C18.06390334 59.89316269 12.93024803 59.97040422 7 59 C7 58.34 7 57.68 7 57 C5.35 57 3.7 57 2 57 C1.505 57.99 1.505 57.99 1 59 C1 58.01 1 57.02 1 56 C-0.1446875 55.814375 -0.1446875 55.814375 -1.3125 55.625 C-4 55 -4 55 -7 53 C-7 52.34 -7 51.68 -7 51 C-7.8971875 51.2784375 -7.8971875 51.2784375 -8.8125 51.5625 C-11 52 -11 52 -14 51 C-15.91059562 51.94897578 -15.91059562 51.94897578 -17.8125 53.375 C-20.62359048 55.26976817 -21.93328056 55.99011564 -25.375 56.5 C-26.674375 56.7475 -26.674375 56.7475 -28 57 C-29.45291273 59.46255685 -29.45291273 59.46255685 -30 62 C-34.95 62.495 -34.95 62.495 -40 63 C-40.0928125 61.8553125 -40.0928125 61.8553125 -40.1875 60.6875 C-41.2547656 57.15731377 -42.8475042 56.69749774 -46 55 C-46 54.34 -46 53.68 -46 53 C-45.01 52.505 -45.01 52.505 -44 52 C-44.66 51.01 -45.32 50.02 -46 49 C-46.99 49.495 -46.99 49.495 -48 50 C-48 38.12 -48 26.24 -48 14 C-48.66 14 -49.32 14 -50 14 C-50 13.34 -50 12.68 -50 12 C-52.31 11.67 -54.62 11.34 -57 11 C-56.67 11.33 -56.34 11.66 -56 12 C-55.84126045 14.21687994 -55.74866163 16.43855298 -55.68359375 18.66015625 C-55.66281265 19.32462265 -55.64203156 19.98908905 -55.62062073 20.6736908 C-55.55506342 22.80318543 -55.49621215 24.93280668 -55.4375 27.0625 C-55.39432061 28.50326847 -55.35070651 29.94402399 -55.30664062 31.38476562 C-55.19937607 34.9230404 -55.09812629 38.46145869 -55 42 C-53.68 42 -52.36 42 -51 42 C-51 41.34 -51 40.68 -51 40 C-50.34 40 -49.68 40 -49 40 C-50.4031723 43.33434242 -51.96989805 45.05526479 -54.875 47.1875 C-55.55304688 47.69667969 -56.23109375 48.20585937 -56.9296875 48.73046875 C-59.04775779 50.02928544 -60.5269289 50.76067054 -63 51 C-66.81708757 48.3280387 -69.22021544 46.34172907 -71 42 C-71.47968176 37.53303525 -71.41635368 33.05256831 -71.4375 28.5625 C-71.47037109 27.33466797 -71.50324219 26.10683594 -71.53710938 24.84179688 C-71.59063318 15.90332134 -71.59063318 15.90332134 -69.0078125 11.953125 C-65.23135532 9.50088008 -61.43902009 7.25180349 -57.4375 5.1875 C-56.68275391 4.78080078 -55.92800781 4.37410156 -55.15039062 3.95507812 C-51.32793063 1.95123346 -49.45437439 1 -45 1 C-42.3125 3.5 -42.3125 3.5 -40 6 C-39.67 6 -39.34 6 -39 6 C-38.278125 6.309375 -37.55625 6.61875 -36.8125 6.9375 C-33.87124892 8.0486393 -31.10664826 8.5665142 -28 9 C-28 9.66 -28 10.32 -28 11 C-29.98 11.99 -29.98 11.99 -32 13 C-32.33 22.24 -32.66 31.48 -33 41 C-28.0129344 41.70775561 -28.0129344 41.70775561 -23 42 C-23.97453125 40.31583984 -23.97453125 40.31583984 -24.96875 38.59765625 C-27.34997722 33.81942512 -27.60093253 29.70701894 -27.5 24.4375 C-27.51546875 23.62603516 -27.5309375 22.81457031 -27.546875 21.97851562 C-27.50942147 16.17790026 -26.54484944 12.64577017 -23 8 C-20.61199936 6.43741078 -18.62770916 5.30386605 -16.0625 4.1875 C-15.45470703 3.90197266 -14.84691406 3.61644531 -14.22070312 3.32226562 C-12.49361577 2.51927247 -10.7470957 1.75847568 -9 1 C-8.11183594 0.58363281 -7.22367187 0.16726562 -6.30859375 -0.26171875 C-3.626018 -1.11959831 -2.60941828 -0.96298824 0 0 Z " fill="#EBEBEB" transform="translate(362,244)"/>
<path d="M0 0 C-0.66 1.65 -1.32 3.3 -2 5 C0.475 2.525 0.475 2.525 3 0 C4 3 4 3 3.1796875 5.0078125 C2.53386719 6.05582031 2.53386719 6.05582031 1.875 7.125 C1.45992187 7.82882813 1.04484375 8.53265625 0.6171875 9.2578125 C-1 11 -1 11 -3.4140625 11.4375 C-7.03629391 12.22541741 -8.02332797 13.9638325 -10.25 16.875 C-11.01957031 17.85984375 -11.78914063 18.8446875 -12.58203125 19.859375 C-13.37996094 20.89578125 -14.17789063 21.9321875 -15 23 C-16.63165324 25.05368724 -18.28298078 27.08948843 -19.9375 29.125 C-20.66839844 30.03507812 -21.39929688 30.94515625 -22.15234375 31.8828125 C-24 34 -24 34 -26 35 C-25.01 32.03 -25.01 32.03 -24 29 C-27.15737088 30.40317869 -29.34665518 32.07553091 -31.8203125 34.4765625 C-32.52027344 35.146875 -33.22023438 35.8171875 -33.94140625 36.5078125 C-35.40506666 37.92696088 -36.86860706 39.34623304 -38.33203125 40.765625 C-39.02941406 41.43335938 -39.72679687 42.10109375 -40.4453125 42.7890625 C-41.07969238 43.40475098 -41.71407227 44.02043945 -42.36767578 44.65478516 C-44 46 -44 46 -46 46 C-46.24105469 46.5671875 -46.48210937 47.134375 -46.73046875 47.71875 C-48.25224188 50.45325926 -50.0805077 52.30927142 -52.3125 54.5 C-53.07175781 55.2528125 -53.83101563 56.005625 -54.61328125 56.78125 C-57 59 -57 59 -59.52734375 60.921875 C-75.48699521 74.33504179 -85.17851004 101.28387313 -92.90234375 119.9453125 C-93.38783691 121.11723145 -93.87333008 122.28915039 -94.37353516 123.49658203 C-95.31416243 125.78670782 -96.24276085 128.08182102 -97.15771484 130.38232422 C-99.41346857 135.90345311 -101.24494919 140.1672325 -106 144 C-106.7528125 144.64324219 -107.505625 145.28648437 -108.28125 145.94921875 C-109.37953125 146.80966797 -109.37953125 146.80966797 -110.5 147.6875 C-111.2321875 148.26886719 -111.964375 148.85023438 -112.71875 149.44921875 C-116.48509146 152.00955704 -119.74750392 153.27974563 -124.3125 153.125 C-125.529375 153.08375 -126.74625 153.0425 -128 153 C-128 152.34 -128 151.68 -128 151 C-126.845 150.484375 -125.69 149.96875 -124.5 149.4375 C-110.95252728 142.56802178 -105.71580944 129.82507083 -99.65145874 116.65505981 C-98.66757424 114.5192452 -97.67618866 112.38705306 -96.68286133 110.25561523 C-93.89628734 104.27205938 -91.12760176 98.28051024 -88.375 92.28125 C-84.87457191 84.69686284 -81.19271397 77.29134514 -77 70.0625 C-76.63285889 69.42449463 -76.26571777 68.78648926 -75.88745117 68.12915039 C-69.22574748 56.9633972 -61.0297328 47.5562252 -51.81689453 38.48071289 C-50.12479521 36.81229808 -48.44651874 35.13085543 -46.76953125 33.44726562 C-40.15702279 26.85194288 -33.35648429 20.76664055 -26 15 C-25.36304199 14.48864502 -24.72608398 13.97729004 -24.06982422 13.45043945 C-7.30636008 0 -7.30636008 0 0 0 Z " fill="#EFEFEF" transform="translate(184,234)"/>
<path d="M0 0 C3.09110842 1.48145288 5.96685375 3.18807087 8.875 5 C12.50214605 7.19989628 15.86682281 8.91232179 20 10 C19.360625 10.103125 18.72125 10.20625 18.0625 10.3125 C17.381875 10.539375 16.70125 10.76625 16 11 C14.54127505 15.37617484 14.50527733 19.72684754 14.25 24.3125 C14.18167969 25.25029297 14.11335938 26.18808594 14.04296875 27.15429688 C13.74665313 32.54496184 13.7390915 36.41528232 17 41 C17.99 41.33 18.98 41.66 20 42 C11.738041 49.66742597 11.738041 49.66742597 7 51 C5.98808455 50.09650406 4.99081074 49.17659153 4 48.25 C3.443125 47.73953125 2.88625 47.2290625 2.3125 46.703125 C1 45 1 45 1 41 C-0.42892578 42.11761719 -0.42892578 42.11761719 -1.88671875 43.2578125 C-3.1529225 44.21449978 -4.41988996 45.17017685 -5.6875 46.125 C-6.31333984 46.61871094 -6.93917969 47.11242187 -7.58398438 47.62109375 C-12.26807259 51.10350489 -12.26807259 51.10350489 -15.70703125 50.6171875 C-18.50755436 48.64203151 -20.11213972 46.87724117 -22 44 C-22.45410156 40.49487305 -22.45410156 40.49487305 -22.390625 36.51171875 C-22.38496521 35.80852005 -22.37930542 35.10532135 -22.37347412 34.3808136 C-22.35119769 32.14899752 -22.30102373 29.91882539 -22.25 27.6875 C-22.22992343 26.16864309 -22.21167468 24.64976084 -22.1953125 23.13085938 C-22.15136357 19.42004455 -22.08239921 15.7101829 -22 12 C-20.57742047 11.17802748 -19.15085764 10.36294633 -17.72265625 9.55078125 C-16.92867432 9.09614502 -16.13469238 8.64150879 -15.31665039 8.1730957 C-12.56959669 6.78205418 -10.06270118 6.2355924 -7 6 C-7 6.66 -7 7.32 -7 8 C-6.34 8 -5.68 8 -5 8 C-5.33 6.68 -5.66 5.36 -6 4 C-4.02 2.68 -2.04 1.36 0 0 Z " fill="#F1F1F1" transform="translate(224,244)"/>
<path d="M0 0 C3.82352106 1.5577308 6.29205593 3.91595258 9 7 C9 7.99 9 8.98 9 10 C9.763125 9.67 10.52625 9.34 11.3125 9 C14 8 14 8 17 8 C17 7.01 17 6.02 17 5 C19.625 2.6875 19.625 2.6875 23 1 C26.98183494 1.70267675 29.44647563 2.88846415 32 6 C32.41690224 9.00502984 32.65602877 11.81382721 32.7578125 14.83203125 C32.80964188 16.13608162 32.80964188 16.13608162 32.86251831 17.46647644 C32.92901458 19.30623748 32.98732894 21.14630974 33.03808594 22.98657227 C33.12442867 25.79392384 33.2642614 28.59537627 33.40625 31.40039062 C33.46425045 33.18999987 33.51904239 34.97971655 33.5703125 36.76953125 C33.61890411 37.60410355 33.66749573 38.43867584 33.71755981 39.29853821 C33.76581418 42.80977033 33.69263052 45.07753193 31.54241943 47.94125366 C29.72955062 49.625289 28.24395544 50.94949729 26 52 C23.76785278 51.64753723 23.76785278 51.64753723 22 51 C22.33 49.35 22.66 47.7 23 46 C21.02 46.495 21.02 46.495 19 47 C16.85663839 43.5233662 16.78722374 40.78770805 16.875 36.75 C16.89304687 35.67234375 16.91109375 34.5946875 16.9296875 33.484375 C16.95289063 32.66453125 16.97609375 31.8446875 17 31 C17.99 30.67 18.98 30.34 20 30 C20.495 28.515 20.495 28.515 21 27 C19.68 27.33 18.36 27.66 17 28 C17 23.05 17 18.1 17 13 C13.25308553 11.60229416 13.25308553 11.60229416 11 13 C10.77352937 17.06170158 10.57200504 21.12427108 10.375 25.1875 C10.27832031 26.91323242 10.27832031 26.91323242 10.1796875 28.67382812 C10.128125 29.78564453 10.0765625 30.89746094 10.0234375 32.04296875 C9.97106934 33.06414795 9.91870117 34.08532715 9.86474609 35.13745117 C10.00820523 38.17365764 10.71315853 40.26601086 12 43 C6.25 47 6.25 47 4 47 C3.01 49.475 3.01 49.475 2 52 C1.34 52 0.68 52 0 52 C0 51.01 0 50.02 0 49 C-0.721875 48.731875 -1.44375 48.46375 -2.1875 48.1875 C-4.99766383 47.00098638 -7.48416557 45.72514361 -10 44 C-10 43.34 -10 42.68 -10 42 C-8.68 41.34 -7.36 40.68 -6 40 C-6 31.09 -6 22.18 -6 13 C-7.98 13 -9.96 13 -12 13 C-10.56652501 9.61042892 -8.81218308 7.7219322 -6 5.375 C-3.92339664 3.6266832 -1.92037235 1.92037235 0 0 Z " fill="#EFEFEF" transform="translate(257,243)"/>
<path d="M0 0 C1.75109502 2.29323867 3.25897117 4.48725881 4.75 6.9375 C5.16121094 7.58396484 5.57242188 8.23042969 5.99609375 8.89648438 C9 13.7017364 9 13.7017364 9 16 C7.171875 17.4375 7.171875 17.4375 4.75 19 C3.96109375 19.515625 3.1721875 20.03125 2.359375 20.5625 C-3.2826087 24 -3.2826087 24 -7 24 C-7.66 25.32 -8.32 26.64 -9 28 C-9.99 28 -10.98 28 -12 28 C-11.67 30.31 -11.34 32.62 -11 35 C-10.01 34.505 -10.01 34.505 -9 34 C-9 34.66 -9 35.32 -9 36 C-8.01 36 -7.02 36 -6 36 C-6 36.66 -6 37.32 -6 38 C-0.158256 38.35050464 3.8531808 38.16727335 9 35 C7.49203266 38.77839007 5.3019872 40.64563017 2.125 43.125 C0.82949219 44.14980469 0.82949219 44.14980469 -0.4921875 45.1953125 C-2.62015241 46.72665173 -4.6184787 47.92554621 -7 49 C-4.72930578 49.81289053 -2.45845099 50.62532738 -0.1875 51.4375 C0.45509766 51.66759766 1.09769531 51.89769531 1.75976562 52.13476562 C4.49928283 53.11417851 7.23986086 54.07995362 10 55 C10.495 54.01 10.495 54.01 11 53 C11.66 53.66 12.32 54.32 13 55 C16.60113148 56.20037716 20.18897844 57 24 57 C24 57.66 24 58.32 24 59 C18.06390334 59.89316269 12.93024803 59.97040422 7 59 C7 58.34 7 57.68 7 57 C5.35 57 3.7 57 2 57 C1.505 57.99 1.505 57.99 1 59 C1 58.01 1 57.02 1 56 C-0.1446875 55.814375 -0.1446875 55.814375 -1.3125 55.625 C-4 55 -4 55 -7 53 C-7 52.34 -7 51.68 -7 51 C-7.598125 51.185625 -8.19625 51.37125 -8.8125 51.5625 C-11 52 -11 52 -14 51 C-15.90869856 52.02410778 -15.90869856 52.02410778 -17.8125 53.5 C-20.9043009 55.57453554 -21.62570567 56.02005148 -25.5 55.8125 C-26.325 55.544375 -27.15 55.27625 -28 55 C-28.433125 53.4221875 -28.433125 53.4221875 -28.875 51.8125 C-29.77225193 48.77181289 -30.76423419 45.91287656 -32 43 C-25.25 42 -25.25 42 -23 42 C-23.6496875 40.87722656 -24.299375 39.75445312 -24.96875 38.59765625 C-27.34997722 33.81942512 -27.60093253 29.70701894 -27.5 24.4375 C-27.51546875 23.62603516 -27.5309375 22.81457031 -27.546875 21.97851562 C-27.50942147 16.17790026 -26.54484944 12.64577017 -23 8 C-20.61199936 6.43741078 -18.62770916 5.30386605 -16.0625 4.1875 C-15.15081055 3.75920898 -15.15081055 3.75920898 -14.22070312 3.32226562 C-12.49361577 2.51927247 -10.7470957 1.75847568 -9 1 C-8.11183594 0.58363281 -7.22367187 0.16726562 -6.30859375 -0.26171875 C-3.626018 -1.11959831 -2.60941828 -0.96298824 0 0 Z " fill="#F6F6F6" transform="translate(362,244)"/>
<path d="M0 0 C3.3 0 6.6 0 10 0 C9.67 0.66 9.34 1.32 9 2 C7.68 2 6.36 2 5 2 C5 2.66 5 3.32 5 4 C4.34 4 3.68 4 3 4 C2.22220955 6.76011339 1.87187998 9.21727238 1.8671875 12.08203125 C1.86589844 12.84966797 1.86460937 13.61730469 1.86328125 14.40820312 C1.86908203 15.59833008 1.86908203 15.59833008 1.875 16.8125 C1.87113281 17.59431641 1.86726563 18.37613281 1.86328125 19.18164062 C1.86930258 22.78540507 2.01976317 26.12921023 2.56640625 29.703125 C3.01356303 33.10312788 2.76329301 35.59842743 2.0625 38.9375 C1.86785156 39.89527344 1.67320312 40.85304688 1.47265625 41.83984375 C1.31667969 42.55269531 1.16070312 43.26554687 1 44 C1.66 44 2.32 44 3 44 C3 48.62 3 53.24 3 58 C6.465 57.505 6.465 57.505 10 57 C10 57.66 10 58.32 10 59 C7.525 59.495 7.525 59.495 5 60 C5 60.66 5 61.32 5 62 C4.01 62.495 4.01 62.495 3 63 C2.34227572 66.02934491 2.34227572 66.02934491 2 69 C3.485 69.495 3.485 69.495 5 70 C5 70.66 5 71.32 5 72 C3.68 72 2.36 72 1 72 C1 72.66 1 73.32 1 74 C0.34 74 -0.32 74 -1 74 C-0.34 71.03 0.32 68.06 1 65 C0.21625 65.66 -0.5675 66.32 -1.375 67 C-4 69 -4 69 -6 69 C-6.33 67.68 -6.66 66.36 -7 65 C-10.153368 64.29925156 -12.72724974 64 -16 64 C-16.33 62.02 -16.66 60.04 -17 58 C-15.515 57.505 -15.515 57.505 -14 57 C-13.9003823 51.48654319 -13.8281809 45.97362172 -13.78027344 40.45947266 C-13.76028137 38.58763491 -13.73307832 36.71585862 -13.69824219 34.84423828 C-13.28857167 20.42887164 -13.28857167 20.42887164 -18 7 C-18.33 6.01 -18.66 5.02 -19 4 C-18.34 4 -17.68 4 -17 4 C-15.375 6.5 -15.375 6.5 -14 9 C-13.2265625 8.1028125 -13.2265625 8.1028125 -12.4375 7.1875 C-8.79320897 3.91698241 -4.93453357 2 0 2 C0 1.34 0 0.68 0 0 Z " fill="#F5F5F5" transform="translate(391,226)"/>
<path d="M0 0 C3.006818 1.33999498 4.99762609 2.79845291 7.25 5.1875 C9.62985442 7.70284119 12.12611164 10.0015291 14.7421875 12.265625 C40.30517078 34.48879508 58.38616234 62.2820885 61.84765625 96.71484375 C62.0988882 100.48332307 62.05993087 104.22435549 62 108 C60.12939453 107.71069336 60.12939453 107.71069336 58 107 C54.30093042 100.97679803 52.73885325 94.76507922 51.125 87.9375 C43.49019088 57.37641508 25.39923161 34.63012404 5.41015625 10.92578125 C4.67667969 10.04277344 3.94320313 9.15976562 3.1875 8.25 C2.56230469 7.51265625 1.93710937 6.7753125 1.29296875 6.015625 C0 4 0 4 0 0 Z " fill="#F4F4F4" transform="translate(439,260)"/>
<path d="M0 0 C1.35208914 0.62775567 2.68163705 1.30419733 4 2 C4.721875 2.37125 5.44375 2.7425 6.1875 3.125 C10.54889233 7.63678517 9.11805794 16.66414771 9.1328125 22.55859375 C9 25 9 25 8 26 C8.42350164 28.48177887 8.90078182 30.91751591 9.4375 33.375 C11 40.63482533 11 40.63482533 11 44 C6.77777778 47 6.77777778 47 4 47 C3.01 49.475 3.01 49.475 2 52 C1.34 52 0.68 52 0 52 C0 51.01 0 50.02 0 49 C-0.721875 48.731875 -1.44375 48.46375 -2.1875 48.1875 C-4.99766383 47.00098638 -7.48416557 45.72514361 -10 44 C-10 43.34 -10 42.68 -10 42 C-8.68 41.34 -7.36 40.68 -6 40 C-6 31.09 -6 22.18 -6 13 C-7.98 13 -9.96 13 -12 13 C-10.56652501 9.61042892 -8.81218308 7.7219322 -6 5.375 C-3.92339664 3.6266832 -1.92037235 1.92037235 0 0 Z " fill="#F5F5F5" transform="translate(257,243)"/>
<path d="M0 0 C3.81116078 2.7735331 6.11683703 5.38499883 8.5 9.4375 C10.37288612 12.50112191 11.95409972 14.95409972 14.5 17.5 C19.25270244 22.25270244 22.82483395 28.21299418 25.4296875 34.390625 C27.14022626 38.3223111 29.19330135 41.77478726 31.5 45.375 C32.14932495 46.40222168 32.14932495 46.40222168 32.81176758 47.45019531 C35.60090008 51.84930676 38.43632288 56.21794727 41.27758789 60.58349609 C57.36270305 85.30026006 57.36270305 85.30026006 57 96 C53.15553128 94.52571536 51.87803513 92.62973712 49.8984375 89.08203125 C49.33133057 88.08308838 48.76422363 87.08414551 48.17993164 86.05493164 C47.5843042 84.9849292 46.98867676 83.91492676 46.375 82.8125 C40.51226938 72.50485215 40.51226938 72.50485215 34.0625 62.5625 C24.02201494 47.89487974 15.17490323 32.38403972 6.625 16.8125 C6.07158936 15.81549072 5.51817871 14.81848145 4.94799805 13.79125977 C4.18869995 12.38831665 4.18869995 12.38831665 3.4140625 10.95703125 C2.9701416 10.14210205 2.5262207 9.32717285 2.06884766 8.48754883 C0.85740705 5.6681408 0.39371603 3.03381607 0 0 Z " fill="#EBEBEB" transform="translate(409,236)"/>
<path d="M0 0 C1.15796631 3.47389892 0.62250364 4.3710363 -0.94165039 7.52758789 C-1.27028076 8.15785889 -1.59891113 8.78812988 -1.9375 9.4375 C-2.46234985 10.46121704 -2.46234985 10.46121704 -2.99780273 11.50561523 C-12.04110897 28.85807788 -21.92892612 45.72310143 -32.75585938 62.01831055 C-36.53448708 67.71100514 -40.1390032 73.46192684 -43.5625 79.375 C-51.42627791 92.94805252 -51.42627791 92.94805252 -54 96 C-54.66 96 -55.32 96 -56 96 C-56.37202686 89.7788842 -55.55815008 85.89274603 -52.625 80.4375 C-52.08697754 79.401698 -52.08697754 79.401698 -51.53808594 78.3449707 C-48.32156038 72.29985957 -44.60312547 66.65038379 -40.73046875 61.01171875 C-37.57141894 56.40666607 -34.55858022 51.71222405 -31.5625 47 C-31.05428711 46.21069092 -30.54607422 45.42138184 -30.02246094 44.6081543 C-27.21687984 40.184801 -25.06258659 35.82557023 -23 31 C-21.46180552 28.36241168 -19.77743869 25.83776633 -18.0625 23.3125 C-17.63259766 22.66216797 -17.20269531 22.01183594 -16.75976562 21.34179688 C-14.4198411 17.85854049 -12.01230167 14.93838015 -9 12 C-7.75713352 10.31662389 -6.54879214 8.60724832 -5.375 6.875 C-3.67171908 4.36842501 -2.14353028 2.14353028 0 0 Z " fill="#EAEAEA" transform="translate(191,236)"/>
<path d="M0 0 C1.02322003 8.15165294 1.33657016 16.26236334 1.60546875 24.46875 C1.64285156 25.49484375 1.68023437 26.5209375 1.71875 27.578125 C1.74904297 28.50012695 1.77933594 29.42212891 1.81054688 30.37207031 C1.99908653 32.98732919 2.42928524 35.44333651 3 38 C0.78242908 39.9044269 -1.41548513 41.62159207 -4 43 C-7.45669533 42.51767042 -8.68140839 41.3206094 -11.12011719 38.86645508 C-13.53714836 35.1809534 -13.46045709 32.89368266 -13.390625 28.51171875 C-13.38496521 27.80852005 -13.37930542 27.10532135 -13.37347412 26.3808136 C-13.35119769 24.14899752 -13.30102373 21.91882539 -13.25 19.6875 C-13.22992343 18.16864309 -13.21167468 16.64976084 -13.1953125 15.13085938 C-13.15136357 11.42004455 -13.08239921 7.7101829 -13 4 C-11.59248779 3.13083113 -10.1735479 2.28014851 -8.75 1.4375 C-7.96109375 0.96183594 -7.1721875 0.48617187 -6.359375 -0.00390625 C-3.69155375 -1.13022151 -2.65498232 -1.0169313 0 0 Z " fill="#EEEEEE" transform="translate(215,252)"/>
<path d="M0 0 C1.48206495 0.254496 2.96068615 0.52911762 4.4375 0.8125 C5.67306641 1.03873047 5.67306641 1.03873047 6.93359375 1.26953125 C7.61550781 1.51058594 8.29742187 1.75164062 9 2 C9.33 2.99 9.66 3.98 10 5 C10.99 4.67 11.98 4.34 13 4 C13 6.97 13 9.94 13 13 C15.31 13.33 17.62 13.66 20 14 C20 14.33 20 14.66 20 15 C18.35 15 16.7 15 15 15 C15.99 16.299375 15.99 16.299375 17 17.625 C19.12695385 21.21423463 19.38790972 22.92694798 19 27 C20.32 27.33 21.64 27.66 23 28 C22.38125 28.061875 21.7625 28.12375 21.125 28.1875 C18.72238859 28.828919 18.72238859 28.828919 17.75 31.5625 C17.5025 32.366875 17.255 33.17125 17 34 C12.05 34.495 12.05 34.495 7 35 C6.938125 34.236875 6.87625 33.47375 6.8125 32.6875 C5.7452344 29.15731377 4.1524958 28.69749774 1 27 C1 26.34 1 25.68 1 25 C1.66 24.67 2.32 24.34 3 24 C2.34 23.01 1.68 22.02 1 21 C0.34 21.33 -0.32 21.66 -1 22 C-0.9278125 21.33355469 -0.855625 20.66710937 -0.78125 19.98046875 C-0.10801736 13.29489465 0.11693011 6.7169852 0 0 Z " fill="#F7F7F7" transform="translate(315,272)"/>
<path d="M0 0 C0.33 0 0.66 0 1 0 C1.45987136 6.42051166 -0.20170668 11.57810218 -2.25 17.625 C-2.90039152 19.59613917 -3.55013478 21.56749237 -4.19921875 23.5390625 C-4.51294434 24.48297852 -4.82666992 25.42689453 -5.14990234 26.39941406 C-6.19027936 29.58209527 -7.12956145 32.78433948 -8.0625 36 C-11.75019599 47.85000218 -16.52620948 57.63941203 -24.48291016 67.1796875 C-26.17569022 69.21080565 -27.84413824 71.26064897 -29.51171875 73.3125 C-32.9803347 77.56513706 -36.46709294 81.80058269 -40 86 C-40.6079541 86.7326709 -41.2159082 87.4653418 -41.84228516 88.22021484 C-42.44733887 88.93516113 -43.05239258 89.65010742 -43.67578125 90.38671875 C-44.21759033 91.03213623 -44.75939941 91.67755371 -45.31762695 92.3425293 C-47.09390247 94.09251253 -48.72298119 95.01642465 -51 96 C-51.8203125 93.90625 -51.8203125 93.90625 -52 91 C-50.36865722 88.58585171 -48.82524192 86.62261178 -46.875 84.5 C-46.14410156 83.66662109 -46.14410156 83.66662109 -45.3984375 82.81640625 C-43.1803122 80.30921675 -40.91733903 77.92018941 -38.5078125 75.59375 C-32.53759128 69.41894176 -28.19948466 62.25206207 -23.875 54.875 C-22.85295154 53.14240903 -21.82954582 51.41061787 -20.8046875 49.6796875 C-20.32314209 48.86387207 -19.84159668 48.04805664 -19.34545898 47.20751953 C-18.24515862 45.40223629 -17.05430239 43.65242366 -15.83984375 41.921875 C-13.51626595 38.23177692 -12.12662526 34.4755504 -10.6875 30.375 C-10.39480225 29.56119873 -10.10210449 28.74739746 -9.80053711 27.90893555 C-8.85714427 25.27601873 -7.92716515 22.63867216 -7 20 C-6.66967773 19.06397949 -6.33935547 18.12795898 -5.99902344 17.16357422 C-3.98333462 11.44789403 -1.98520949 5.72633376 0 0 Z " fill="#EFEFEF" transform="translate(197,238)"/>
<path d="M0 0 C3.19155434 3.54207187 4.18006981 7.50164361 5.375 12 C9.66315963 27.30345116 16.56609763 40.96328267 24.8125 54.5 C25.39064453 55.46808594 25.96878906 56.43617188 26.56445312 57.43359375 C31.82848244 66.10033814 37.73294099 73.91461747 45 81 C46.47794932 82.48067617 47.93481182 83.9825699 49.375 85.5 C50.08398438 86.2321875 50.79296875 86.964375 51.5234375 87.71875 C53 90 53 90 52.7265625 92.78125 C52.48679687 93.5134375 52.24703125 94.245625 52 95 C48.51167242 94.4362727 47.12691973 93.41039626 44.93359375 90.67578125 C44.08958008 89.63732056 44.08958008 89.63732056 43.22851562 88.57788086 C42.63748047 87.83030518 42.04644531 87.08272949 41.4375 86.3125 C40.82197266 85.54881104 40.20644531 84.78512207 39.57226562 83.99829102 C37.70405966 81.67390084 35.85035812 79.3386123 34 77 C33.46262207 76.32485352 32.92524414 75.64970703 32.37158203 74.95410156 C30.00655823 71.98209792 27.65594949 69.0003639 25.33203125 65.99609375 C23.98032346 64.25947755 22.61136514 62.53549283 21.19921875 60.84765625 C10.24682001 47.46139113 -0.81774516 17.53245616 0 0 Z " fill="#EEEEEE" transform="translate(403,239)"/>
<path d="M0 0 C9.51471947 9.19500164 16.59586545 20.64066621 23.875 31.625 C24.30865875 32.27698364 24.7423175 32.92896729 25.18911743 33.60070801 C46.17048859 65.15752479 46.17048859 65.15752479 46 73 C45.01 73 44.02 73 43 73 C41.28808917 71.14213585 39.8059324 69.33583238 38.3125 67.3125 C37.64395996 66.42075073 37.64395996 66.42075073 36.96191406 65.51098633 C32.57736438 59.57520996 28.72254539 53.36781751 25 47 C24.47857422 46.11280273 23.95714844 45.22560547 23.41992188 44.31152344 C19.79605218 38.14284692 16.19697574 31.96020749 12.61083984 25.76953125 C11.22752837 23.39119155 9.83139188 21.02144382 8.42578125 18.65625 C4.83787959 12.57983689 1.88380894 6.8288074 0 0 Z " fill="#F2F2F2" transform="translate(409,293)"/>
<path d="M0 0 C1 3 1 3 0.05859375 5.51171875 C-6.12637375 17.62829363 -13.05255694 29.30839006 -20 41 C-20.76763672 42.30300049 -20.76763672 42.30300049 -21.55078125 43.63232422 C-37.61380193 70.87126731 -37.61380193 70.87126731 -44 73 C-44.37394733 67.42897484 -43.5425359 64.34484895 -40.671875 59.58203125 C-40.31567078 58.98598587 -39.95946655 58.38994049 -39.59246826 57.77583313 C-35.04768869 50.26287428 -30.15237062 42.96966524 -25.25 35.6875 C-24.27232673 34.22852417 -23.29478861 32.76945776 -22.31738281 31.31030273 C-3.97451251 3.97451251 -3.97451251 3.97451251 0 0 Z " fill="#F2F2F2" transform="translate(190,294)"/>
<path d="M0 0 C0 4.30950197 -2.2802227 7.13616554 -4.5 10.6875 C-4.98267334 11.46770508 -5.46534668 12.24791016 -5.96264648 13.05175781 C-34.584535 58.90751555 -34.584535 58.90751555 -45 68 C-45.99 68 -46.98 68 -48 68 C-47.77254535 55.94490381 -38.4837893 46.76084528 -31.34130859 37.70458984 C-29.9862277 35.98249759 -28.64242587 34.25210586 -27.30078125 32.51953125 C-9.16327348 9.16327348 -9.16327348 9.16327348 0 0 Z " fill="#F1F1F1" transform="translate(190,286)"/>
<path d="M0 0 C5.74763123 4.52473097 10.13635689 9.60495306 14.66650391 15.32958984 C16.10870433 17.13616899 17.57327051 18.92275798 19.04296875 20.70703125 C48.22300857 56.1805459 48.22300857 56.1805459 48 68 C45.14994975 67.68048764 44.08514651 67.08719823 42.0546875 65.0078125 C29.17520926 47.97366386 17.62068718 29.81742053 6.15380859 11.81103516 C5.30839658 10.48406387 4.45618363 9.16141885 3.60009766 7.84130859 C3.14038574 7.12410645 2.68067383 6.4069043 2.20703125 5.66796875 C1.78526611 5.01465576 1.36350098 4.36134277 0.92895508 3.68823242 C0 2 0 2 0 0 Z " fill="#F2F2F2" transform="translate(410,286)"/>
<path d="M0 0 C4.19004779 3.58321328 6.33503579 7.9274332 8.8125 12.75 C9.25190918 13.59111328 9.69131836 14.43222656 10.14404297 15.29882812 C12.88288289 20.61039638 15.33418296 25.98313333 17.625 31.5 C20.03869525 37.25541109 22.92948899 42.09279515 26.7578125 47.0234375 C31.56490422 53.40497737 35.72746004 60.25379504 40 67 C40.66 68.03511719 41.32 69.07023437 42 70.13671875 C42.53625 70.99910156 43.0725 71.86148438 43.625 72.75 C44.07101562 73.46671875 44.51703125 74.1834375 44.9765625 74.921875 C46.1297993 77.26356194 46.59569436 79.43041307 47 82 C34.60963048 77.82593935 28.4831442 64.92490619 23 54 C22.5059668 53.02289063 22.01193359 52.04578125 21.50292969 51.0390625 C0 8.21642955 0 8.21642955 0 0 Z " fill="#F2F2F2" transform="translate(405,237)"/>
<path d="M0 0 C1.44172402 4.32517206 -0.3967267 7.28315106 -2.0625 11.3125 C-2.41248047 12.17117676 -2.76246094 13.02985352 -3.12304688 13.91455078 C-6.54473019 22.15965743 -10.24943411 30.27576838 -14 38.375 C-14.28642365 38.99758698 -14.57284729 39.62017395 -14.86795044 40.2616272 C-21.87836061 55.45481133 -29.1477139 70.84625132 -43 81 C-43.66 81 -44.32 81 -45 81 C-44.4654968 75.92221963 -42.02374316 72.29359711 -39.375 68.0625 C-38.89353516 67.27891113 -38.41207031 66.49532227 -37.91601562 65.68798828 C-35.17677653 61.28637994 -32.32455708 56.99479002 -29.3203125 52.76953125 C-21.25002088 41.40039645 -14.93834948 30.15873858 -9.38671875 17.3671875 C-6.73251335 11.26666728 -3.59887853 5.60098501 0 0 Z " fill="#F2F2F2" transform="translate(194,238)"/>
<path d="M0 0 C2.56640625 -0.328125 2.56640625 -0.328125 5.5625 -0.25 C7.04943359 -0.22679687 7.04943359 -0.22679687 8.56640625 -0.203125 C11 0 11 0 12 1 C12.25380234 5.47331958 12.18522721 9.9578346 12.1875 14.4375 C12.19974609 15.70400391 12.21199219 16.97050781 12.22460938 18.27539062 C12.22750977 20.08620117 12.22750977 20.08620117 12.23046875 21.93359375 C12.23457764 23.04790771 12.23868652 24.16222168 12.24291992 25.31030273 C12 28 12 28 10 30 C9.01 30 8.02 30 7 30 C6.67 30.66 6.34 31.32 6 32 C3.9375 32.625 3.9375 32.625 2 33 C2 32.34 2 31.68 2 31 C1.360625 30.401875 0.72125 29.80375 0.0625 29.1875 C-3.26442509 25.65894309 -3.07290812 22.12369495 -2.94921875 17.4609375 C-2.86866249 15.76529429 -2.78123674 14.06996568 -2.6875 12.375 C-2.65205078 11.51648438 -2.61660156 10.65796875 -2.58007812 9.7734375 C-2.53689453 8.9484375 -2.49371094 8.1234375 -2.44921875 7.2734375 C-2.41143311 6.52497559 -2.37364746 5.77651367 -2.3347168 5.00537109 C-2 3 -2 3 0 0 Z " fill="#0A0A0A" transform="translate(240,255)"/>
<path d="M0 0 C1.46457137 3.44910892 0.59293911 5.7454218 -0.74047852 9.12426758 C-1.14737915 10.11463013 -1.14737915 10.11463013 -1.5625 11.125 C-2.12764772 12.56797623 -2.6900518 14.0120294 -3.25 15.45703125 C-3.54132813 16.20549316 -3.83265625 16.95395508 -4.1328125 17.72509766 C-10.74524775 35.07157053 -15.63250697 52.89208527 -18.421875 71.2421875 C-18.87467788 74.1854062 -19.38332998 77.08794711 -20 80 C-20.66 80 -21.32 80 -22 80 C-28.22911677 60.14469029 -19.44607369 40.94916408 -11.9375 22.6875 C-11.55495056 21.75236572 -11.55495056 21.75236572 -11.16467285 20.79833984 C-4.42186273 4.42186273 -4.42186273 4.42186273 0 0 Z " fill="#EDEDED" transform="translate(193,305)"/>
<path d="M0 0 C5.27098866 4.38621556 7.39696407 9.63034055 10 15.875 C10.43642822 16.90061035 10.87285645 17.9262207 11.32250977 18.98291016 C14.63860497 26.87931925 17.48511639 34.81632137 20 43 C20.55772137 44.66827183 21.11956702 46.33517684 21.6875 48 C21.914375 48.69222656 22.14125 49.38445312 22.375 50.09765625 C22.96170392 51.88343632 23.57374337 53.66083606 24.1875 55.4375 C26.09486941 63.80058128 24.7647153 71.71214066 23 80 C22.34 80 21.68 80 21 80 C20.88519287 79.30777344 20.77038574 78.61554688 20.65209961 77.90234375 C16.80789422 55.0962713 11.00045155 33.65754828 2.84472656 12.01904297 C2.28930176 10.53235107 2.28930176 10.53235107 1.72265625 9.015625 C1.39015869 8.14196289 1.05766113 7.26830078 0.71508789 6.36816406 C0 4 0 4 0 0 Z " fill="#F1F1F1" transform="translate(407,305)"/>
<path d="M0 0 C2.49252335 2.26675625 3.99078887 4.53887563 5.56640625 7.5078125 C6.04674316 8.40338867 6.52708008 9.29896484 7.02197266 10.22167969 C7.53034668 11.17977539 8.0387207 12.13787109 8.5625 13.125 C12.2980052 20.07514577 16.08337519 26.97288028 20.125 33.75 C23.65557754 39.68950952 27.11857832 45.66161742 30.5 51.6875 C31.13252686 52.8017334 31.13252686 52.8017334 31.77783203 53.93847656 C35.35223907 60.34866778 37.29913854 65.52153648 37 73 C27.25201272 68.99667071 23.2547616 55.64797894 19.3125 46.625 C18.71211949 45.27093244 18.11103337 43.91717754 17.50927734 42.5637207 C15.65596099 38.38313633 13.82669192 34.19226957 12 30 C11.39673263 28.61991705 10.79338057 27.23987112 10.18994141 25.85986328 C8.49237983 21.97305191 6.80592215 18.0815326 5.125 14.1875 C4.60719971 12.99012207 4.08939941 11.79274414 3.5559082 10.55908203 C3.08628662 9.46063965 2.61666504 8.36219727 2.1328125 7.23046875 C1.71918457 6.26520264 1.30555664 5.29993652 0.87939453 4.30541992 C0 2 0 2 0 0 Z " fill="#EDEDED" transform="translate(410,302)"/>
<path d="M0 0 C0.495 0.99 0.495 0.99 1 2 C0.20239258 4.27709961 0.20239258 4.27709961 -1.10546875 7.15234375 C-1.58862549 8.22597168 -2.07178223 9.29959961 -2.56958008 10.40576172 C-3.37045044 12.15397217 -3.37045044 12.15397217 -4.1875 13.9375 C-5.01556893 15.76833076 -5.84362351 17.59916821 -6.67076111 19.43041992 C-7.24398778 20.69830733 -7.818275 21.96571573 -8.39356995 23.23266602 C-10.37019508 27.58804572 -12.30844735 31.95835946 -14.2265625 36.33984375 C-14.74452393 37.52006104 -15.26248535 38.70027832 -15.79614258 39.91625977 C-16.77586892 42.15096965 -17.75248972 44.38704479 -18.7253418 46.62475586 C-28.26386524 68.26386524 -28.26386524 68.26386524 -35 75 C-35.66 75 -36.32 75 -37 75 C-36.80238508 67.05438872 -35.33792598 61.5288022 -31.25 54.75 C-30.7648291 53.90791992 -30.2796582 53.06583984 -29.77978516 52.19824219 C-28.74071834 50.39596116 -27.69378453 48.59819631 -26.63964844 46.8046875 C-24.39279781 42.96135517 -22.21481304 39.08060374 -20.03369141 35.19970703 C-18.39357721 32.28303649 -16.74499756 29.37131709 -15.09375 26.4609375 C-11.97985118 20.96932705 -8.88513779 15.46708055 -5.80224609 9.95800781 C-3.92134227 6.60497222 -1.99623247 3.28572426 0 0 Z " fill="#F2F2F2" transform="translate(191,300)"/>
<path d="M0 0 C0.66 0 1.32 0 2 0 C2 6.27 2 12.54 2 19 C0.68 19.33 -0.64 19.66 -2 20 C-1.34 21.98 -0.68 23.96 0 26 C0.5775 25.79375 1.155 25.5875 1.75 25.375 C4.57183574 24.90469404 5.66883683 25.39230126 8 27 C9.32234763 30.96704289 9.12733524 34.05432668 8 38 C1.25 37.25 1.25 37.25 -1 35 C-1.33 35.66 -1.66 36.32 -2 37 C-2.66 36.34 -3.32 35.68 -4 35 C-6.15840057 34.4268878 -6.15840057 34.4268878 -8.625 34.0625 C-13.37045571 33.20031691 -17.53847095 31.81765998 -22 30 C-20.61400791 27.22801583 -18.65290995 26.57516528 -16 25 C-13.45885944 22.95914649 -10.97940149 20.8574269 -8.5 18.7421875 C-5.88424881 16.91933589 -4.0904492 16.52580559 -1 16 C0.50156874 12.99686252 0.09281204 10.20932478 0.0625 6.875 C0.05347656 5.59367187 0.04445313 4.31234375 0.03515625 2.9921875 C0.02355469 2.00476563 0.01195312 1.01734375 0 0 Z " fill="#161616" transform="translate(376,264)"/>
<path d="M0 0 C0.66 0 1.32 0 2 0 C6.62442819 9.8831806 9.50963288 20.12910259 12.34960938 30.63427734 C12.88553404 32.58364295 13.46093325 34.52211167 14.046875 36.45703125 C17.08541437 46.93425899 17.98121486 59.03757029 13 69 C12.34 69 11.68 69 11 69 C9.99851509 65.99554528 9.88164795 63.49391644 9.8112793 60.35375977 C9.45403509 46.63188158 6.70755767 33.41833729 4 20 C3.59290068 17.94287623 3.18660972 15.88559227 2.78125 13.828125 C1.86906927 9.21564088 0.94027759 4.60683492 0 0 Z " fill="#F3F3F3" transform="translate(404,309)"/>
<path d="M0 0 C0.33 0 0.66 0 1 0 C0.30665168 7.37753771 -0.99140179 14.5482807 -2.4375 21.8125 C-6.0086561 39.83411019 -6.0086561 39.83411019 -7.56640625 58.10351562 C-7.73811208 62.13860265 -8.23010389 65.35315761 -10 69 C-12 68 -12 68 -13.09375 65.3984375 C-18.42939856 45.38975542 -9.53234415 17.80569945 0 0 Z " fill="#F4F4F4" transform="translate(195,309)"/>
<path d="M0 0 C0.66 0 1.32 0 2 0 C14.0100091 42.9799818 14.0100091 42.9799818 7 57 C6.34 57 5.68 57 5 57 C2.23872225 52.27565169 1.47642144 48.18862244 1.26953125 42.8125 C1.229384 42.03293945 1.18923676 41.25337891 1.14787292 40.45019531 C1.02355382 37.96722056 0.91814865 35.48383117 0.8125 33 C0.73096914 31.36322349 0.64829639 29.72650344 0.56445312 28.08984375 C0.10333025 18.719206 -0.1119329 9.38323008 0 0 Z " fill="#EDEDED" transform="translate(401,313)"/>
<path d="M0 0 C0.33 0 0.66 0 1 0 C1.06954567 7.00093061 1.05137648 13.99896679 1 21 C0.99419922 22.27327148 0.98839844 23.54654297 0.98242188 24.85839844 C0.96293544 28.2355857 0.91319975 31.61140898 0.84640503 34.98797607 C0.81288819 36.9769638 0.80388326 38.96631541 0.79516602 40.95556641 C0.55206844 51.24916624 0.55206844 51.24916624 -2.55078125 54.375 C-3.35902344 54.91125 -4.16726562 55.4475 -5 56 C-11.87586462 42.24827076 -6.44135787 18.90643763 -1.8125 4.9375 C-1.22100385 3.28707066 -0.62216814 1.63911303 0 0 Z " fill="#F4F4F4" transform="translate(198,314)"/>
<path d="M0 0 C2.875 1.6875 2.875 1.6875 5 4 C5.625 6.5 5.625 6.5 5 9 C2.5 11.3125 2.5 11.3125 0 13 C8.19320099 13.29362007 8.19320099 13.29362007 16 11 C16.66 10.34 17.32 9.68 18 9 C20.1640625 8.5859375 20.1640625 8.5859375 22.625 8.375 C23.85089844 8.26285156 23.85089844 8.26285156 25.1015625 8.1484375 C25.72804688 8.09945313 26.35453125 8.05046875 27 8 C23.44568537 12.87072746 19.97734788 15.85129199 14 17 C5.4851915 17.59839092 -1.72816393 17.94484853 -9 13 C-10.54586876 9.90826248 -10.29359521 7.40570448 -10 4 C-7.25657347 -0.1151398 -4.81370572 -0.78591114 0 0 Z " fill="#F3F3F3" transform="translate(304,299)"/>
<path d="M0 0 C3 0 3 0 5.64453125 1.71484375 C9.65574698 5.9943783 8.75937267 12.07205281 8.6875 17.5625 C8.71521484 18.69880859 8.74292969 19.83511719 8.77148438 21.00585938 C8.7476095 29.0994404 8.7476095 29.0994404 6.61572266 31.66748047 C4.95703125 32.77734375 4.95703125 32.77734375 2 34 C-0.59286095 31.40713905 -0.31162055 30.19567103 -0.44921875 26.58203125 C-0.49240234 25.49212891 -0.53558594 24.40222656 -0.58007812 23.27929688 C-0.61552734 22.13525391 -0.65097656 20.99121094 -0.6875 19.8125 C-0.73455078 18.68779297 -0.78160156 17.56308594 -0.83007812 16.40429688 C-1.03132196 10.79256309 -1.06270606 5.52127734 0 0 Z " fill="#0A0A0A" transform="translate(216,253)"/>
<path d="M0 0 C2.4164124 0.48328248 4.65832183 1.21944061 7 2 C7 2.66 7 3.32 7 4 C7.66 4 8.32 4 9 4 C9 12.91 9 21.82 9 31 C8.01 30.67 7.02 30.34 6 30 C6 30.66 6 31.32 6 32 C4.68 32 3.36 32 2 32 C0.59087904 29.18175808 0.88816447 26.82748718 0.90234375 23.6796875 C0.90556641 22.42285156 0.90878906 21.16601562 0.91210938 19.87109375 C0.92048828 18.55238281 0.92886719 17.23367188 0.9375 15.875 C0.94251511 14.53515789 0.94707799 13.195314 0.95117188 11.85546875 C0.96298914 8.57026794 0.97946383 5.28515603 1 2 C0.34 1.67 -0.32 1.34 -1 1 C-0.67 0.67 -0.34 0.34 0 0 Z " fill="#070707" transform="translate(305,254)"/>
<path d="M0 0 C2.41763105 3.62644657 2.44861074 6.53858977 2.625 10.75 C2.65932129 11.5035376 2.69364258 12.2570752 2.72900391 13.03344727 C2.79536275 14.59320709 2.85635411 16.15320406 2.91210938 17.71337891 C2.99409264 19.8463101 3.11174829 21.97456992 3.234375 24.10546875 C3.53715881 32.35632757 2.57798315 38.05127557 -2 45 C-2.99 45 -3.98 45 -5 45 C-4.48998284 34.49096213 -3.83472666 23.99306417 -3.0625 13.5 C-2.98789551 12.39599854 -2.91329102 11.29199707 -2.83642578 10.15454102 C-2.75763184 9.12385498 -2.67883789 8.09316895 -2.59765625 7.03125 C-2.53070557 6.10892578 -2.46375488 5.18660156 -2.39477539 4.23632812 C-2 2 -2 2 0 0 Z " fill="#EDEDED" transform="translate(398,315)"/>
<path d="M0 0 C0.99 0.66 1.98 1.32 3 2 C3.50830078 4.79394531 3.50830078 4.79394531 3.6953125 8.328125 C3.77136719 9.60300781 3.84742188 10.87789063 3.92578125 12.19140625 C3.99281796 13.54423974 4.05921851 14.89710489 4.125 16.25 C4.26827489 18.88052696 4.41933965 21.51051906 4.5703125 24.140625 C4.62977051 25.31141602 4.68922852 26.48220703 4.75048828 27.68847656 C4.98834871 30.84536387 5.45053819 33.8846103 6 37 C6.11196073 39.67810075 6.04625299 42.31732686 6 45 C5.01 45 4.02 45 3 45 C-4.52236375 35.81196999 -2.58922601 23.89663284 -1.53515625 12.83203125 C-1.08963426 8.54528606 -0.56562075 4.27245676 0 0 Z " fill="#EEEEEE" transform="translate(202,315)"/>
<path d="M0 0 C0.66 0 1.32 0 2 0 C2 0.66 2 1.32 2 2 C2.99 2 3.98 2 5 2 C4 4 4 4 2.703125 5.63671875 C0.37979236 8.86060922 -1.40516082 12.29836861 -3.25 15.8125 C-3.60707031 16.47958984 -3.96414062 17.14667969 -4.33203125 17.83398438 C-6.48638926 21.91375293 -8.46775991 26.0330349 -10.34527588 30.24813843 C-14.27169723 38.98166724 -19.131073 46.77801451 -24.5 54.6875 C-26.14045677 57.12555371 -27.77415415 59.56806282 -29.40625 62.01171875 C-29.79965576 62.59629852 -30.19306152 63.1808783 -30.59838867 63.78317261 C-33.85687694 68.66724168 -36.72940819 73.70479561 -39.50976562 78.87817383 C-40.00154297 79.57837646 -40.49332031 80.2785791 -41 81 C-41.99 81 -42.98 81 -44 81 C-42.68440121 77.45107093 -41.11622033 74.39976206 -39.05859375 71.2265625 C-38.47964355 70.32736084 -37.90069336 69.42815918 -37.30419922 68.50170898 C-36.68818848 67.55239502 -36.07217773 66.60308105 -35.4375 65.625 C-29.79533675 56.83914096 -24.25792325 48.02094675 -19 39 C-18.52820313 38.19175781 -18.05640625 37.38351562 -17.5703125 36.55078125 C-5.84677817 19.20995098 -5.84677817 19.20995098 0 0 Z " fill="#2B2B2B" transform="translate(191,235)"/>
<path d="M0 0 C1.84173482 2.76260222 3.38688054 5.5222441 4.94140625 8.453125 C5.52019531 9.53948242 6.09898437 10.62583984 6.6953125 11.74511719 C7.31148438 12.90172852 7.92765625 14.05833984 8.5625 15.25 C17.40071419 31.7536221 27.16177168 47.50867777 37.25488281 63.27148438 C40.17831462 67.84231172 43.08896775 72.42126923 46 77 C44.02 77.495 44.02 77.495 42 78 C41.68289063 77.3915625 41.36578125 76.783125 41.0390625 76.15625 C35.27716436 65.33279493 28.83154752 54.93291226 21.73071289 44.93896484 C16.52868334 37.59755699 12.51127831 30.37061897 8.93603516 22.11425781 C7.06579882 17.88988466 5.05087804 13.73219319 3.0625 9.5625 C2.28225449 7.91810992 1.5022806 6.27359092 0.72265625 4.62890625 C0.14850007 3.41924113 -0.42569306 2.20959355 -1 1 C-0.67 0.67 -0.34 0.34 0 0 Z " fill="#222222" transform="translate(409,239)"/>
<path d="M0 0 C0.66 0.66 1.32 1.32 2 2 C0.67673428 5.95015042 -0.65629607 9.89683839 -1.99780273 13.84082031 C-2.45123435 15.1781627 -2.90215608 16.51635917 -3.3503418 17.85546875 C-7.06773181 28.95364319 -11.54709498 39.06421737 -17.875 48.9375 C-18.30844727 49.62062256 -18.74189453 50.30374512 -19.18847656 51.00756836 C-20.05524515 52.37300155 -20.92368463 53.73737578 -21.79394531 55.10058594 C-22.87349481 56.80076713 -23.9341298 58.51292394 -24.9921875 60.2265625 C-28.30420449 65.5699499 -31.76382508 70.35053972 -36 75 C-36.99 74.67 -37.98 74.34 -39 74 C-38.34644531 73.41605469 -38.34644531 73.41605469 -37.6796875 72.8203125 C-32.61840275 68.06577228 -29.31529884 63.06881674 -26 57 C-25.05060547 55.31583984 -25.05060547 55.31583984 -24.08203125 53.59765625 C-18.95651551 44.33712024 -14.52207378 34.77386007 -10.1875 25.125 C-9.90905243 24.50756927 -9.63060486 23.89013855 -9.34371948 23.2539978 C-5.90381466 15.60627854 -2.73026279 7.93023229 0 0 Z " fill="#191919" transform="translate(194,241)"/>
<path d="M0 0 C1.78660549 2.67990823 2.90527195 4.99794173 4.109375 7.9609375 C4.52751465 8.97623535 4.9456543 9.9915332 5.37646484 11.03759766 C5.82973145 12.13894043 6.28299805 13.2402832 6.75 14.375 C11.01620593 24.59855961 15.56131274 34.6485609 20.375 44.625 C20.66918823 45.23865417 20.96337646 45.85230835 21.26647949 46.48455811 C23.94181392 52.05383914 26.59811686 57.53034374 29.9765625 62.7109375 C30.97816406 64.33902344 30.97816406 64.33902344 32 66 C31.67 66.66 31.34 67.32 31 68 C17.32471857 49.57006774 7.34041588 29.68141295 1.05078125 7.66015625 C0.40979564 5.42742942 -0.26542994 3.20371017 -1 1 C-0.67 0.67 -0.34 0.34 0 0 Z " fill="#141414" transform="translate(405,239)"/>
<path d="M0 0 C3.97757931 2.93532591 6.96916907 6.2133412 9.9375 10.125 C10.90605249 11.3829646 11.87481271 12.64076927 12.84375 13.8984375 C13.35421875 14.56456055 13.8646875 15.23068359 14.390625 15.91699219 C16.04367841 18.0565328 17.72143273 20.17446436 19.40625 22.2890625 C32.95133462 39.34471966 45.99865622 56.42277399 51 78 C50.34 78 49.68 78 49 78 C48.505 79.98 48.505 79.98 48 82 C47.87625 81.030625 47.7525 80.06125 47.625 79.0625 C45.11168147 61.85309892 37.05634021 49.27891648 26.42675781 35.81933594 C24.37948627 33.20874944 22.41094886 30.54163161 20.4375 27.875 C17.09371135 23.41661513 13.69029287 19.00901844 10.25 14.625 C9.80197021 14.05378418 9.35394043 13.48256836 8.89233398 12.89404297 C6.70344278 10.11675764 4.47971878 7.39043826 2.171875 4.7109375 C0 2 0 2 0 0 Z " fill="#393939" transform="translate(438,263)"/>
<path d="M0 0 C0.86625 0.4125 1.7325 0.825 2.625 1.25 C1.635 1.58 0.645 1.91 -0.375 2.25 C-0.375 3.24 -0.375 4.23 -0.375 5.25 C-1.3543879 6.27019573 -2.35395449 7.27149805 -3.375 8.25 C-3.375 8.91 -3.375 9.57 -3.375 10.25 C-3.045 9.59 -2.715 8.93 -2.375 8.25 C-1.055 8.25 0.265 8.25 1.625 8.25 C1.625 8.91 1.625 9.57 1.625 10.25 C-1.09322404 12.34691569 -2.59002648 13.30476559 -6.0625 13.0625 C-8.375 12.25 -8.375 12.25 -10.375 10.25 C-12.025 10.58 -13.675 10.91 -15.375 11.25 C-15.705 17.85 -16.035 24.45 -16.375 31.25 C-18.01850079 27.96299843 -18.78821669 25.77069985 -19.375 22.25 C-19.045 22.25 -18.715 22.25 -18.375 22.25 C-18.375 16.64 -18.375 11.03 -18.375 5.25 C-18.045 6.24 -17.715 7.23 -17.375 8.25 C-16.611875 7.92 -15.84875 7.59 -15.0625 7.25 C-12.375 6.25 -12.375 6.25 -9.375 6.25 C-9.375 5.26 -9.375 4.27 -9.375 3.25 C-4.54046763 -1.00899281 -4.54046763 -1.00899281 0 0 Z " fill="#ABABAB" transform="translate(283.375,244.75)"/>
<path d="M0 0 C2.51333206 2.51333206 3.59336588 5.08159013 5.13671875 8.2890625 C8.68337073 15.53128575 12.66006367 22.46131934 16.8125 29.375 C17.51536657 30.55259721 18.21800065 31.73033322 18.92041016 32.90820312 C24.77527511 42.70620249 30.66733916 52.50100874 37 62 C35.35 62 33.7 62 32 62 C31.6282666 61.30140869 31.2565332 60.60281738 30.87353516 59.88305664 C21.40701924 42.11864743 21.40701924 42.11864743 11.36035156 24.67822266 C7.70377781 18.55676761 4.3153983 12.31243055 1 6 C0.34 6 -0.32 6 -1 6 C-1.33 4.68 -1.66 3.36 -2 2 C-1.34 2 -0.68 2 0 2 C0 1.34 0 0.68 0 0 Z " fill="#232323" transform="translate(410,297)"/>
<path d="M0 0 C0.99 0.33 1.98 0.66 3 1 C2.00280638 3.99158087 0.88254365 5.52455407 -1 8 C-1.90768064 9.55385759 -2.78495388 11.12573904 -3.63671875 12.7109375 C-4.12744873 13.6189209 -4.61817871 14.5269043 -5.1237793 15.46240234 C-5.63980713 16.42355957 -6.15583496 17.3847168 -6.6875 18.375 C-10.72398278 25.83639564 -14.80833902 33.25511117 -19.05078125 40.6015625 C-20.52447891 43.17093518 -21.97868436 45.74737801 -23.41796875 48.3359375 C-23.82700439 49.07021973 -24.23604004 49.80450195 -24.6574707 50.56103516 C-25.45166807 51.98890232 -26.24329626 53.41820242 -27.03198242 54.84912109 C-30.82332442 61.65391895 -30.82332442 61.65391895 -34.125 62.625 C-34.74375 62.74875 -35.3625 62.8725 -36 63 C-34.65663347 60.21858714 -33.17912757 57.60664736 -31.5234375 55 C-24.95135898 44.56480611 -18.61883286 34.01805356 -12.5 23.3125 C-12.16152039 22.72235107 -11.82304077 22.13220215 -11.4743042 21.52416992 C-7.42360888 14.4534893 -3.54306785 7.33936085 0 0 Z " fill="#272727" transform="translate(190,297)"/>
<path d="M0 0 C0.72574219 0.144375 1.45148438 0.28875 2.19921875 0.4375 C1.19921875 2.4375 1.19921875 2.4375 -1.02734375 4.6015625 C-4.1506865 7.79529044 -6.63371631 11.15296761 -9.17578125 14.8125 C-9.68399414 15.53856445 -10.19220703 16.26462891 -10.71582031 17.01269531 C-15.1036967 23.33197609 -19.34294484 29.74735202 -23.55078125 36.1875 C-24.19184814 37.16783203 -24.83291504 38.14816406 -25.4934082 39.15820312 C-28.19085221 43.3105939 -30.85651415 47.46180122 -33.3203125 51.7578125 C-33.67577148 52.37172852 -34.03123047 52.98564453 -34.39746094 53.61816406 C-35.28174159 55.16945519 -36.13842851 56.73639161 -36.9921875 58.3046875 C-38.80078125 60.4375 -38.80078125 60.4375 -42.015625 61.2578125 C-42.93472656 61.31710937 -43.85382813 61.37640625 -44.80078125 61.4375 C-43.98828125 60.35416667 -43.17578125 59.27083333 -42.36328125 58.1875 C-41.52603516 57.06601562 -41.52603516 57.06601562 -40.671875 55.921875 C-39.44823108 54.29716199 -38.21168998 52.68206236 -36.9609375 51.078125 C-31.63712429 44.17045181 -26.760245 37.00593391 -21.92578125 29.75 C-21.23460205 28.71423828 -20.54342285 27.67847656 -19.83129883 26.61132812 C-16.64883749 21.81796354 -13.51015769 17.00915764 -10.5 12.10546875 C-10.00677246 11.31035889 -9.51354492 10.51524902 -9.00537109 9.69604492 C-8.10051769 8.22799882 -7.21057638 6.75061906 -6.33837891 5.26293945 C-3.41508729 0.53345854 -3.41508729 0.53345854 0 0 Z " fill="#282828" transform="translate(189.80078125,292.5625)"/>
<path d="M0 0 C2.73244793 2.73244793 3.49589723 5.91643969 4.6796875 9.5078125 C4.93372345 10.26609344 5.1877594 11.02437439 5.44949341 11.80563354 C5.988652 13.42038286 6.52477035 15.03614994 7.05810547 16.65283203 C7.85675167 19.06977509 8.66777975 21.48227965 9.48046875 23.89453125 C19.07016191 52.59862089 19.07016191 52.59862089 17 58 C16.34 57.34 15.68 56.68 15 56 C14.01 56.495 14.01 56.495 13 57 C12.88785156 55.66775391 12.88785156 55.66775391 12.7734375 54.30859375 C10.87868498 35.89977268 5.53293562 18.25899658 -1 1 C-0.67 0.67 -0.34 0.34 0 0 Z " fill="#343434" transform="translate(407,309)"/>
<path d="M0 0 C4.26124111 3.62156288 6.42880638 8.10776085 8.9375 13 C9.37481445 13.8470752 9.81212891 14.69415039 10.26269531 15.56689453 C19.45657564 33.55417715 19.45657564 33.55417715 18.109375 37.8203125 C17.74328125 38.53960937 17.3771875 39.25890625 17 40 C14.43133955 37.43133955 13.48579219 34.85818673 12.03125 31.5234375 C11.60978699 30.5573204 11.60978699 30.5573204 11.17980957 29.57168579 C10.58573491 28.20589568 9.99412257 26.83903231 9.40478516 25.47119141 C8.51095299 23.4003757 7.60566695 21.33485001 6.69921875 19.26953125 C6.12168828 17.93780662 5.54484409 16.60578413 4.96875 15.2734375 C4.44732422 14.07122559 3.92589844 12.86901367 3.38867188 11.63037109 C1.91075052 7.76667725 0.92506534 4.02691811 0 0 Z " fill="#EBEBEB" transform="translate(405,237)"/>
<path d="M0 0 C0.99 0.33 1.98 0.66 3 1 C3 1.66 3 2.32 3 3 C3.99 3 4.98 3 6 3 C5.67 3.99 5.34 4.98 5 6 C5.66 6 6.32 6 7 6 C7.66 7.98 8.32 9.96 9 12 C9.66 10.68 10.32 9.36 11 8 C12.32 8.66 13.64 9.32 15 10 C15 10.66 15 11.32 15 12 C13.390625 13.2890625 13.390625 13.2890625 11.25 14.625 C10.55390625 15.07101562 9.8578125 15.51703125 9.140625 15.9765625 C7 17 7 17 3 17 C3 16.34 3 15.68 3 15 C2.34 15 1.68 15 1 15 C-1.51045109 11.6205466 -2.55372478 9.20830832 -2 5 C-1.34 4.01 -0.68 3.02 0 2 C0 1.34 0 0.68 0 0 Z " fill="#F4F4F4" transform="translate(356,248)"/>
<path d="M0 0 C0 3.48767383 -0.51549873 4.00761704 -2.640625 6.6328125 C-3.21103516 7.34824219 -3.78144531 8.06367188 -4.36914062 8.80078125 C-5.30016602 9.95126953 -5.30016602 9.95126953 -6.25 11.125 C-29.09840981 39.01805074 -29.09840981 39.01805074 -38 73 C-38.66 71.68 -39.32 70.36 -40 69 C-40.99 69.495 -40.99 69.495 -42 70 C-37.02092141 49.4360006 -26.82725521 33.464316 -13.76171875 17.19970703 C-11.04066083 13.8021555 -8.36721209 10.36767485 -5.6875 6.9375 C-1.17190454 1.17190454 -1.17190454 1.17190454 0 0 Z " fill="#313131" transform="translate(153,274)"/>
<path d="M0 0 C5.39350463 2.34819765 9.03747363 6.69769974 13.125 10.8125 C13.97940674 11.67182129 14.83381348 12.53114258 15.71411133 13.41650391 C26.55615956 24.45992364 37.5843198 37.26934987 43 52 C41.02 52.495 41.02 52.495 39 53 C38.72027344 52.26136719 38.44054687 51.52273438 38.15234375 50.76171875 C31.13868086 33.0133178 19.37648072 20.10404826 5.9440918 6.92944336 C5.17750244 6.17671143 4.41091309 5.42397949 3.62109375 4.6484375 C2.9242749 3.96958496 2.22745605 3.29073242 1.50952148 2.59130859 C0 1 0 1 0 0 Z " fill="#343434" transform="translate(452,270)"/>
<path d="M0 0 C1.15577427 3.4673228 0.85767994 4.02890343 -0.4765625 7.28125 C-0.81558594 8.11881836 -1.15460938 8.95638672 -1.50390625 9.81933594 C-1.87386719 10.70395508 -2.24382812 11.58857422 -2.625 12.5 C-2.99238281 13.39750977 -3.35976562 14.29501953 -3.73828125 15.21972656 C-6.34541265 21.54773761 -9.05271097 27.82202875 -12 34 C-13.32 33.67 -14.64 33.34 -16 33 C-14.52822904 28.15667209 -12.53899988 23.80395912 -10.25 19.3125 C-9.89873047 18.61640625 -9.54746094 17.9203125 -9.18554688 17.203125 C-6.24292798 11.4033353 -3.1748064 5.67616903 0 0 Z " fill="#ECECEC" transform="translate(194,238)"/>
<path d="M0 0 C2.85606045 3.47715035 5.43094437 7.04019182 7.90625 10.796875 C8.65221666 11.92442803 9.39823086 13.05194961 10.14428711 14.17944336 C10.52922333 14.76305634 10.91415955 15.34666931 11.3107605 15.94796753 C19.58775826 28.4899481 27.9081108 41.02751224 37 53 C35.02 53.495 35.02 53.495 33 54 C32.67427002 53.46334717 32.34854004 52.92669434 32.01293945 52.3737793 C22.11675251 36.11489481 11.92861733 20.04227966 0.1953125 5.03125 C-0.19914062 4.3609375 -0.59359375 3.690625 -1 3 C-0.67 2.01 -0.34 1.02 0 0 Z " fill="#2C2C2C" transform="translate(417,299)"/>
<path d="M0 0 C0.66 0 1.32 0 2 0 C1.608125 1.175625 1.21625 2.35125 0.8125 3.5625 C0.53792969 4.39394531 0.26335937 5.22539062 -0.01953125 6.08203125 C-0.70679424 8.12739164 -1.41429675 10.16601045 -2.13671875 12.19921875 C-7.42274007 27.35692656 -11.70172624 42.86610127 -12 59 C-12.33 59 -12.66 59 -13 59 C-13.06058594 58.25234375 -13.12117187 57.5046875 -13.18359375 56.734375 C-13.26738281 55.74953125 -13.35117188 54.7646875 -13.4375 53.75 C-13.51871094 52.77546875 -13.59992188 51.8009375 -13.68359375 50.796875 C-13.88925899 48.12347874 -13.88925899 48.12347874 -14.60986328 46.15405273 C-15.12861795 43.2898647 -14.46624449 41.49607798 -13.55859375 38.73828125 C-13.05791382 37.19442749 -13.05791382 37.19442749 -12.54711914 35.61938477 C-12.18094482 34.52811279 -11.81477051 33.43684082 -11.4375 32.3125 C-11.07197021 31.19866943 -10.70644043 30.08483887 -10.32983398 28.93725586 C-2.29420905 4.58841811 -2.29420905 4.58841811 0 0 Z " fill="#313131" transform="translate(193,309)"/>
<path d="M0 0 C0.99 0.33 1.98 0.66 3 1 C2.73445312 2.01578125 2.46890625 3.0315625 2.1953125 4.078125 C-1.83293778 19.66379846 -3.29426664 33.89229667 -3 50 C-3.33 50 -3.66 50 -4 50 C-4 48.02 -4 46.04 -4 44 C-4.66 44 -5.32 44 -6 44 C-6.33 46.97 -6.66 49.94 -7 53 C-7.33 53 -7.66 53 -8 53 C-8.23772686 45.27293384 -7.60615673 38.03996975 -6.25 30.4375 C-6.07243164 29.40625 -5.89486328 28.375 -5.71191406 27.3125 C-4.0992721 18.14113022 -2.15035194 9.05892943 0 0 Z " fill="#454545" transform="translate(195,314)"/>
<path d="M0 0 C2.80068733 2.80068733 4.75916799 4.84292504 6.8125 8.0625 C7.25207031 8.73410156 7.69164062 9.40570313 8.14453125 10.09765625 C9 12 9 12 8 15 C2.62857143 19 2.62857143 19 0 19 C0 12.73 0 6.46 0 0 Z " fill="#0F0F0F" transform="translate(349,251)"/>
<path d="M0 0 C1.921875 2.72265625 1.921875 2.72265625 3.75 6.0625 C4.36359375 7.16722656 4.9771875 8.27195313 5.609375 9.41015625 C6.06828125 10.26480469 6.5271875 11.11945313 7 12 C5.68 13.32 4.36 14.64 3 16 C2.34 15.67 1.68 15.34 1 15 C0.375 12.9375 0.375 12.9375 0 11 C-0.99 11.33 -1.98 11.66 -3 12 C-3 10 -3 10 -1.5 8.375 C-1.005 7.92125 -0.51 7.4675 0 7 C-0.99 7 -1.98 7 -3 7 C-4.6875 5.5 -4.6875 5.5 -6 4 C-6 4.66 -6 5.32 -6 6 C-5.34 6.33 -4.68 6.66 -4 7 C-5.32 6.67 -6.64 6.34 -8 6 C-7.67 4.68 -7.34 3.36 -7 2 C-7.66 1.67 -8.32 1.34 -9 1 C-3.50681199 -1.59400545 -3.50681199 -1.59400545 0 0 Z " fill="#D4D4D4" transform="translate(362,244)"/>
<path d="M0 0 C0.33 0.66 0.66 1.32 1 2 C0.18652344 3.70141602 0.18652344 3.70141602 -1.140625 5.75390625 C-1.62917969 6.51799805 -2.11773437 7.28208984 -2.62109375 8.06933594 C-3.15863281 8.89208008 -3.69617188 9.71482422 -4.25 10.5625 C-4.79269531 11.4071582 -5.33539063 12.25181641 -5.89453125 13.12207031 C-7.58796934 15.75357881 -9.29261499 18.37752343 -11 21 C-12.52909923 23.3561858 -14.05745622 25.71284855 -15.58496094 28.07006836 C-16.50204807 29.48288255 -17.4218068 30.89396757 -18.34472656 32.30297852 C-21.05431912 36.45675704 -23.57798699 40.67177304 -26 45 C-26.99 44.34 -27.98 43.68 -29 43 C-19.43 28.81 -9.86 14.62 0 0 Z " fill="#333333" transform="translate(165,272)"/>
<path d="M0 0 C-1.03090293 0.96990276 -2.07540012 1.92536201 -3.125 2.875 C-3.70507812 3.40867187 -4.28515625 3.94234375 -4.8828125 4.4921875 C-9.85772685 8.03520769 -14.95066402 8.27425653 -20.875 8.125 C-21.56335938 8.11597656 -22.25171875 8.10695313 -22.9609375 8.09765625 C-24.64077838 8.07432513 -26.32043746 8.03846326 -28 8 C-27.67 7.01 -27.34 6.02 -27 5 C-25.95199219 4.89042969 -24.90398437 4.78085937 -23.82421875 4.66796875 C-22.44523349 4.50849426 -21.06633129 4.34830034 -19.6875 4.1875 C-18.65206055 4.08211914 -18.65206055 4.08211914 -17.59570312 3.97460938 C-13.70785944 3.50506304 -11.47092457 3.10512854 -9 0 C-5.56954679 -1.05552406 -3.40394081 -0.95397067 0 0 Z " fill="#EDEDED" transform="translate(331,308)"/>
<path d="M0 0 C1.0257259 4.41062136 1.03684712 6.92630576 -1 11 C-2.32 9.35 -3.64 7.7 -5 6 C-5.33 12.27 -5.66 18.54 -6 25 C-6.66 25 -7.32 25 -8 25 C-8 19.06 -8 13.12 -8 7 C-8.99 7 -9.98 7 -11 7 C-11 6.34 -11 5.68 -11 5 C-11.66 4.67 -12.32 4.34 -13 4 C-11.58774074 3.32404685 -10.16997095 2.65959941 -8.75 2 C-7.56664062 1.443125 -7.56664062 1.443125 -6.359375 0.875 C-4 0 -4 0 0 0 Z " fill="#DFDFDF" transform="translate(355,246)"/>
<path d="M0 0 C3.85489656 3.4694069 6.38907792 7.4625351 9.125 11.8125 C10.09666377 13.33787225 11.06934177 14.86259885 12.04296875 16.38671875 C12.5332959 17.1554834 13.02362305 17.92424805 13.52880859 18.71630859 C16.17442008 22.82302115 18.90816499 26.87100021 21.65087891 30.91333008 C24.29777105 34.84459566 26.68872109 38.86181042 29 43 C28.34 43.66 27.68 44.32 27 45 C26.50113281 44.14921875 26.00226563 43.2984375 25.48828125 42.421875 C19.91403241 32.98985423 14.02233879 23.79059646 8.015625 14.62890625 C7.00916202 13.0867556 6.00391999 11.54380731 5 10 C4.50435547 9.23929199 4.00871094 8.47858398 3.49804688 7.69482422 C2.8106543 6.62192139 2.8106543 6.62192139 2.109375 5.52734375 C1.70170898 4.8943335 1.29404297 4.26132324 0.87402344 3.60913086 C0 2 0 2 0 0 Z " fill="#2C2C2C" transform="translate(433,269)"/>
<path d="M0 0 C5.96564796 0.50771472 10.63809899 2.38592128 16 5 C16 5.66 16 6.32 16 7 C14.3767313 7.6708712 12.75132422 8.33657029 11.125 9 C10.22007812 9.37125 9.31515625 9.7425 8.3828125 10.125 C6 11 6 11 4 11 C3.71125 9.9275 3.4225 8.855 3.125 7.75 C2.27179891 4.90599636 1.4363497 2.56491017 0 0 Z " fill="#131313" transform="translate(330,288)"/>
<path d="M0 0 C2.46800047 1.15173355 4.04783565 2.04783565 6 4 C5.67 2.68 5.34 1.36 5 0 C10.75 0.75 10.75 0.75 13 3 C12.67 3.66 12.34 4.32 12 5 C12.99 6.32 13.98 7.64 15 9 C14.67 9.66 14.34 10.32 14 11 C13.67 11 13.34 11 13 11 C12.67 11.66 12.34 12.32 12 13 C10.35 11.68 8.7 10.36 7 9 C6.67 9.66 6.34 10.32 6 11 C4.99735282 9.35577799 3.99794896 7.70957779 3 6.0625 C2.443125 5.14597656 1.88625 4.22945312 1.3125 3.28515625 C0 1 0 1 0 0 Z " fill="#E7E7E7" transform="translate(412,234)"/>
<path d="M0 0 C1.36707063 3.68953415 0.62191053 5.62014274 -0.94921875 9.1484375 C-1.38379395 10.14810547 -1.81836914 11.14777344 -2.26611328 12.17773438 C-2.7351709 13.23283203 -3.20422852 14.28792969 -3.6875 15.375 C-7.48001299 24.14823256 -10.80075169 32.67781311 -13 42 C-13.66 41.34 -14.32 40.68 -15 40 C-15.99 40.495 -15.99 40.495 -17 41 C-14.98751868 34.49610629 -12.48075398 28.36268608 -9.625 22.1875 C-6.27204509 14.84494453 -3.02707184 7.4840168 0 0 Z " fill="#343434" transform="translate(185,315)"/>
<path d="M0 0 C3.36406116 3.68771719 4.2978128 7.80031066 5.5625 12.5 C6.76588214 16.88880546 7.92119431 20.93818611 10 25 C10 25.99 10 26.98 10 28 C9.34 28 8.68 28 8 28 C7.67 28.66 7.34 29.32 7 30 C6.49339844 28.17275391 6.49339844 28.17275391 5.9765625 26.30859375 C5.52605564 24.68489196 5.07553403 23.06119426 4.625 21.4375 C4.40328125 20.63763672 4.1815625 19.83777344 3.953125 19.01367188 C3.73398437 18.22412109 3.51484375 17.43457031 3.2890625 16.62109375 C3.07266113 15.83984131 2.85625977 15.05858887 2.63330078 14.25366211 C2.05468404 12.19459844 1.45121903 10.14442962 0.84375 8.09375 C0.06016069 5.22058919 -0.17911941 2.95547031 0 0 Z " fill="#C8C8C8" transform="translate(403,239)"/>
<path d="M0 0 C0.33 0 0.66 0 1 0 C1.09733092 7.09434233 1.10087193 13.98194143 0 21 C-0.99 21 -1.98 21 -3 21 C-5.35196334 13.94410999 -3.81246493 7.65956721 -1 1 C-0.67 0.67 -0.34 0.34 0 0 Z " fill="#EBEBEB" transform="translate(393,321)"/>
<path d="M0 0 C0.99 0.33 1.98 0.66 3 1 C2.32517578 1.73089844 2.32517578 1.73089844 1.63671875 2.4765625 C-4.61591536 9.36824339 -10.31722369 16.63985983 -16 24 C-16.4842041 24.62680664 -16.9684082 25.25361328 -17.46728516 25.89941406 C-20.31888518 29.59398791 -23.16247919 33.29460406 -26 37 C-26.99 36.67 -27.98 36.34 -29 36 C-28.32517578 35.26910156 -28.32517578 35.26910156 -27.63671875 34.5234375 C-21.86323291 28.15987595 -16.5890133 21.46849966 -11.32080078 14.68945312 C-8.76990186 11.42656578 -6.16228753 8.20906669 -3.55859375 4.98828125 C-2.29850246 3.38079637 -1.13297942 1.69946913 0 0 Z " fill="#2D2D2D" transform="translate(180,294)"/>
<path d="M0 0 C4.19432718 1.53663139 6.29595938 4.60790034 8.875 8.0625 C9.83646611 9.32059931 10.80011785 10.57703049 11.765625 11.83203125 C12.28060547 12.50186035 12.79558594 13.17168945 13.32617188 13.86181641 C16.94622379 18.4861476 20.73086426 22.97857303 24.49169922 27.48852539 C25.0642041 28.17809326 25.63670898 28.86766113 26.2265625 29.578125 C26.73783691 30.19075195 27.24911133 30.80337891 27.77587891 31.43457031 C29 33 29 33 30 35 C29.34 35.66 28.68 36.32 28 37 C27.57332031 36.3915625 27.14664062 35.783125 26.70703125 35.15625 C21.4475451 27.78212508 15.81262197 20.77620639 10.078125 13.76953125 C0 1.45489927 0 1.45489927 0 0 Z " fill="#2F2F2F" transform="translate(420,296)"/>
<path d="M0 0 C4.18934112 5.21365804 5.33494776 10.37772874 4.75 16.9375 C4.484375 19.21484375 4.484375 19.21484375 4 21 C3.34 21.33 2.68 21.66 2 22 C-0.01670288 14.56340812 -0.2137731 7.68395543 0 0 Z " fill="#EEEEEE" transform="translate(207,321)"/>
<path d="M0 0 C3.68867663 2.72410889 4.25102451 6.71077417 5.25 10.9375 C5.435625 11.65357422 5.62125 12.36964844 5.8125 13.10742188 C6.71480319 16.79524439 7.11263473 19.37992762 6 23 C5.34 22.34 4.68 21.68 4 21 C3.34 21.33 2.68 21.66 2 22 C1.66198848 19.45887768 1.32946621 16.91723254 1 14.375 C0.90460938 13.66214844 0.80921875 12.94929688 0.7109375 12.21484375 C0.18393899 8.11178391 -0.10466984 4.14754258 0 0 Z " fill="#202020" transform="translate(418,344)"/>
<path d="M0 0 C0.33 0 0.66 0 1 0 C1.4026486 6.18233368 -0.03144523 11.10720828 -2 16.9375 C-2.28617188 17.81212891 -2.57234375 18.68675781 -2.8671875 19.58789062 C-3.56901339 21.7284596 -4.28008389 23.8654615 -5 26 C-5.99 25.67 -6.98 25.34 -8 25 C-5.85406445 16.45115106 -3.0505873 8.25949525 0 0 Z " fill="#D9D9D9" transform="translate(197,238)"/>
<path d="M0 0 C0 3.66938577 -0.86839741 4.44328892 -3.0625 7.3125 C-7.54303139 13.48466058 -10.74466065 20.13311395 -14 27 C-14.99 27 -15.98 27 -17 27 C-17 18.26083167 -5.90515753 5.90515753 0 0 Z " fill="#323232" transform="translate(125,293)"/>
<path d="M0 0 C0 4.38968456 -2.12805101 5.76905739 -5 9 C-3.35 8.34 -1.7 7.68 0 7 C-1.36370299 9.99220268 -2.94908083 12.29026529 -5.125 14.75 C-5.93324219 15.67039062 -5.93324219 15.67039062 -6.7578125 16.609375 C-7.16773438 17.06828125 -7.57765625 17.5271875 -8 18 C-8 15 -8 15 -7 12 C-10.81684226 13.55500981 -13.19195732 16.03595495 -16 19 C-16.66 18.67 -17.32 18.34 -18 18 C-12.06 12.06 -6.12 6.12 0 0 Z " fill="#696969" transform="translate(167,251)"/>
<path d="M0 0 C2.53179458 2.53179458 3.63014313 5.1462464 5.1875 8.375 C8.48115011 15.11708858 12.12593761 21.57070497 16 28 C15.34 28.66 14.68 29.32 14 30 C9.71 22.08 5.42 14.16 1 6 C0.34 6 -0.32 6 -1 6 C-1.33 4.68 -1.66 3.36 -2 2 C-1.34 2 -0.68 2 0 2 C0 1.34 0 0.68 0 0 Z " fill="#262626" transform="translate(410,297)"/>
<path d="M0 0 C0.66 0 1.32 0 2 0 C2.81832722 1.89332534 3.62942268 3.78977733 4.4375 5.6875 C4.88996094 6.74324219 5.34242188 7.79898437 5.80859375 8.88671875 C6.85447455 11.61972529 7.53520748 14.12042337 8 17 C7.01 17.33 6.02 17.66 5 18 C4.67 18.66 4.34 19.32 4 20 C2.68 13.4 1.36 6.8 0 0 Z " fill="#ECECEC" transform="translate(404,309)"/>
<path d="M0 0 C0.99 0.66 1.98 1.32 3 2 C6.60113148 3.20037716 10.18897844 4 14 4 C14 4.66 14 5.32 14 6 C8.06390334 6.89316269 2.93024803 6.97040422 -3 6 C-3 5.34 -3 4.68 -3 4 C-4.65 4 -6.3 4 -8 4 C-8.33 4.66 -8.66 5.32 -9 6 C-9 5.01 -9 4.02 -9 3 C-6.36 3 -3.72 3 -1 3 C-0.67 2.01 -0.34 1.02 0 0 Z " fill="#5D5D5D" transform="translate(372,297)"/>
<path d="M0 0 C1 3 1 3 0.1796875 5.0078125 C-3.37953651 10.78355925 -3.37953651 10.78355925 -6.6875 11.9375 C-7.450625 11.958125 -8.21375 11.97875 -9 12 C-9.99 12.495 -9.99 12.495 -11 13 C-11 12.01 -11 11.02 -11 10 C-11.66 9.67 -12.32 9.34 -13 9 C-11.02 7.35 -9.04 5.7 -7 4 C-6.67 4.99 -6.34 5.98 -6 7 C-4.02 4.69 -2.04 2.38 0 0 Z " fill="#DFDFDF" transform="translate(187,234)"/>
<path d="M0 0 C2.37119806 2.93928864 3.94745799 5.81970396 5.4453125 9.28125 C6.10080078 10.79138672 6.10080078 10.79138672 6.76953125 12.33203125 C7.21683594 13.37746094 7.66414063 14.42289062 8.125 15.5 C8.58003906 16.54542969 9.03507812 17.59085937 9.50390625 18.66796875 C13.15872444 27.13803701 13.15872444 27.13803701 14 31 C13.01 31.33 12.02 31.66 11 32 C10.70867187 31.07960938 10.41734375 30.15921875 10.1171875 29.2109375 C7.53563048 21.19648787 4.61293631 13.49856979 1.13671875 5.828125 C0 3 0 3 0 0 Z " fill="#4C4C4C" transform="translate(415,316)"/>
<path d="M0 0 C0.86625 0.4125 1.7325 0.825 2.625 1.25 C1.635 1.58 0.645 1.91 -0.375 2.25 C-0.375 3.24 -0.375 4.23 -0.375 5.25 C-1.625 6.9375 -1.625 6.9375 -3.375 8.25 C-4.695 8.25 -6.015 8.25 -7.375 8.25 C-7.705 6.93 -8.035 5.61 -8.375 4.25 C-8.705 4.91 -9.035 5.57 -9.375 6.25 C-9.375 5.26 -9.375 4.27 -9.375 3.25 C-4.54046763 -1.00899281 -4.54046763 -1.00899281 0 0 Z " fill="#7F7F7F" transform="translate(283.375,244.75)"/>
<path d="M0 0 C3.5757435 3.30523352 5.45238851 7.22940421 7.6875 11.5 C8.10322266 12.27214844 8.51894531 13.04429687 8.94726562 13.83984375 C9.33978516 14.58363281 9.73230469 15.32742188 10.13671875 16.09375 C10.49467529 16.77115234 10.85263184 17.44855469 11.22143555 18.14648438 C12 20 12 20 12 23 C8.36321557 17.9429329 4.81106028 12.83998809 1.5 7.5625 C0.9946875 6.75941406 0.489375 5.95632813 -0.03125 5.12890625 C-1 3 -1 3 0 0 Z " fill="#282828" transform="translate(424,284)"/>
<path d="M0 0 C0.33 0 0.66 0 1 0 C1.65655389 8.68761489 2.16311941 17.28217363 2 26 C0.68 26.33 -0.64 26.66 -2 27 C-1.75443359 26.15417358 -1.75443359 26.15417358 -1.50390625 25.29125977 C-0.97489074 22.88582828 -0.90173265 20.799594 -0.9375 18.33984375 C-0.94523437 17.46392578 -0.95296875 16.58800781 -0.9609375 15.68554688 C-0.97382813 14.77869141 -0.98671875 13.87183594 -1 12.9375 C-1.02552477 11.13417488 -1.04655216 9.33077899 -1.0625 7.52734375 C-1.07410156 6.73062256 -1.08570313 5.93390137 -1.09765625 5.11303711 C-1 3 -1 3 0 0 Z " fill="#181818" transform="translate(401,327)"/>
<path d="M0 0 C0.99 0 1.98 0 3 0 C3 0.66 3 1.32 3 2 C3.66 2.33 4.32 2.66 5 3 C4.01 3.495 4.01 3.495 3 4 C2.34 3.67 1.68 3.34 1 3 C1 5.31 1 7.62 1 10 C2.32 9.67 3.64 9.34 5 9 C4.67 10.32 4.34 11.64 4 13 C4.99 13.33 5.98 13.66 7 14 C6.67 14.99 6.34 15.98 6 17 C6 16.34 6 15.68 6 15 C4.68 15.33 3.36 15.66 2 16 C-0.14336161 12.5233662 -0.21277626 9.78770805 -0.125 5.75 C-0.10695313 4.67234375 -0.08890625 3.5946875 -0.0703125 2.484375 C-0.04710937 1.66453125 -0.02390625 0.8446875 0 0 Z " fill="#E1E1E1" transform="translate(274,274)"/>
<path d="M0 0 C4.91185365 4.61416555 9.96828966 9.93657931 13 16 C11.68 16.33 10.36 16.66 9 17 C7.49462965 14.54481265 5.99555574 12.0861548 4.5 9.625 C4.07074219 8.92632812 3.64148438 8.22765625 3.19921875 7.5078125 C0 2.2265625 0 2.2265625 0 0 Z " fill="#202020" transform="translate(441,336)"/>
<path d="M0 0 C0.33 0.99 0.66 1.98 1 3 C-0.35539536 5.47264099 -1.73905532 7.73664118 -3.3125 10.0625 C-3.72951172 10.69994141 -4.14652344 11.33738281 -4.57617188 11.99414062 C-6.24664315 14.52249348 -7.85221234 16.85221234 -10 19 C-10.66 18.34 -11.32 17.68 -12 17 C-10.18921503 14.3529891 -8.37608534 11.70759286 -6.5625 9.0625 C-6.04623047 8.30775391 -5.52996094 7.55300781 -4.99804688 6.77539062 C-4.50498047 6.05673828 -4.01191406 5.33808594 -3.50390625 4.59765625 C-2.82050171 3.60004272 -2.82050171 3.60004272 -2.12329102 2.58227539 C-1 1 -1 1 0 0 Z " fill="#252525" transform="translate(148,298)"/>
<path d="M0 0 C0.66 0.33 1.32 0.66 2 1 C2.31526837 3.63219343 2.51405369 6.17059091 2.625 8.8125 C2.66367187 9.53759766 2.70234375 10.26269531 2.7421875 11.00976562 C2.9130783 14.34518779 3 17.65961473 3 21 C2.34 21 1.68 21 1 21 C0.67 21.66 0.34 22.32 0 23 C0 15.33333333 0 7.66666667 0 0 Z " fill="#0C0C0C" transform="translate(289,269)"/>
<path d="M0 0 C1 2 1 2 0.44262695 3.86352539 C-0.58550478 6.27038992 -1.62503058 8.67056278 -2.6875 11.0625 C-3.04005859 11.90361328 -3.39261719 12.74472656 -3.75585938 13.61132812 C-4.10841797 14.41119141 -4.46097656 15.21105469 -4.82421875 16.03515625 C-5.14479248 16.7712915 -5.46536621 17.50742676 -5.7956543 18.26586914 C-7 20 -7 20 -9.13598633 20.74780273 C-10.0586731 20.87264038 -10.0586731 20.87264038 -11 21 C-9.3003494 16.26525903 -6.86340973 12.03832889 -4.375 7.6875 C-3.95476562 6.94693359 -3.53453125 6.20636719 -3.1015625 5.44335938 C-2.07051505 3.62730989 -1.03563954 1.81343467 0 0 Z " fill="#CCCCCC" transform="translate(191,300)"/>
<path d="M0 0 C0.33 0 0.66 0 1 0 C1.06058594 0.63808594 1.12117187 1.27617187 1.18359375 1.93359375 C1.26738281 2.75988281 1.35117188 3.58617187 1.4375 4.4375 C1.55931641 5.67306641 1.55931641 5.67306641 1.68359375 6.93359375 C1.78930815 8.98662025 1.78930815 8.98662025 3 10 C3.14115161 12.67058851 3.04247107 15.32432238 3 18 C2.67 18 2.34 18 2 18 C2 16.02 2 14.04 2 12 C1.34 12 0.68 12 0 12 C-0.33 14.97 -0.66 17.94 -1 21 C-1.33 21 -1.66 21 -2 21 C-2.2494783 13.70968976 -1.72330907 7.09326321 0 0 Z " fill="#2A2A2A" transform="translate(189,346)"/>
<path d="M0 0 C0.66 0.66 1.32 1.32 2 2 C-1.93488794 8.4378492 -5.91340956 14.41715684 -11 20 C-11.99 19.67 -12.98 19.34 -14 19 C-13.34644531 18.41605469 -13.34644531 18.41605469 -12.6796875 17.8203125 C-7.14313523 12.61930886 -3.38681645 6.7736329 0 0 Z " fill="#383838" transform="translate(169,296)"/>
<path d="M0 0 C0 0.66 0 1.32 0 2 C-0.99 2.33 -1.98 2.66 -3 3 C-3.33 3.66 -3.66 4.32 -4 5 C-4.33 5.66 -4.66 6.32 -5 7 C-5.99 7.33 -6.98 7.66 -8 8 C-10.1875 6.5625 -10.1875 6.5625 -12 5 C-4.58064516 0 -4.58064516 0 0 0 Z " fill="#111111" transform="translate(377,280)"/>
<path d="M0 0 C1.65 0.33 3.3 0.66 5 1 C4.67 2.98 4.34 4.96 4 7 C1.03 6.505 1.03 6.505 -2 6 C-2.33 6.99 -2.66 7.98 -3 9 C-3.33 8.01 -3.66 7.02 -4 6 C-3.34 5.01 -2.68 4.02 -2 3 C-1.34 3 -0.68 3 0 3 C0 2.01 0 1.02 0 0 Z " fill="#E6E6E6" transform="translate(283,247)"/>
<path d="M0 0 C0.43570312 0.37511719 0.87140625 0.75023437 1.3203125 1.13671875 C4.29970656 3.69693399 7.28548144 6.24616983 10.3125 8.75 C13 11 13 11 15 13 C14.01 14.485 14.01 14.485 13 16 C11.9171875 14.63875 11.9171875 14.63875 10.8125 13.25 C8.46798221 10.42063858 5.88608747 8.27849011 3 6 C0 2.48275862 0 2.48275862 0 0 Z " fill="#313131" transform="translate(437,307)"/>
<path d="M0 0 C2.23915618 3.35873427 3.69032729 6.8389434 5.1875 10.5625 C5.47302734 11.24763672 5.75855469 11.93277344 6.05273438 12.63867188 C6.76394161 14.4019813 7.38874045 16.19960071 8 18 C7 20 7 20 5 21 C4.65066406 19.80761719 4.30132812 18.61523438 3.94140625 17.38671875 C3.48179955 15.82030407 3.02216255 14.25389829 2.5625 12.6875 C2.21735352 11.50897461 2.21735352 11.50897461 1.86523438 10.30664062 C1.53168945 9.1706543 1.53168945 9.1706543 1.19140625 8.01171875 C0.98717041 7.31522217 0.78293457 6.61872559 0.57250977 5.90112305 C0.07777388 4.25826234 -0.45743619 2.62769144 -1 1 C-0.67 0.67 -0.34 0.34 0 0 Z " fill="#2D2D2D" transform="translate(405,239)"/>
<path d="M0 0 C0.33 0 0.66 0 1 0 C0.67 7.26 0.34 14.52 0 22 C-0.33 22 -0.66 22 -1 22 C-1.06058594 21.25234375 -1.12117187 20.5046875 -1.18359375 19.734375 C-1.26738281 18.74953125 -1.35117188 17.7646875 -1.4375 16.75 C-1.51871094 15.77546875 -1.59992188 14.8009375 -1.68359375 13.796875 C-1.90912902 11.08322908 -1.90912902 11.08322908 -2.625 8.875 C-3.29994333 5.50028335 -1.44845538 3.01278719 0 0 Z " fill="#2E2E2E" transform="translate(181,346)"/>
<path d="M0 0 C3.84130598 1.50908449 5.48803112 3.8029487 8 7 C9.63356951 8.37368345 11.2925002 9.71937515 13 11 C12.67 11.66 12.34 12.32 12 13 C10.35 11.68 8.7 10.36 7 9 C6.67 9.66 6.34 10.32 6 11 C4.99735282 9.35577799 3.99794896 7.70957779 3 6.0625 C2.443125 5.14597656 1.88625 4.22945312 1.3125 3.28515625 C0 1 0 1 0 0 Z " fill="#C7C7C7" transform="translate(412,234)"/>
<path d="M0 0 C0.66 0 1.32 0 2 0 C3.28006797 1.78398614 4.47660351 3.62853906 5.625 5.5 C6.57246094 7.03140625 6.57246094 7.03140625 7.5390625 8.59375 C8.02117187 9.3878125 8.50328125 10.181875 9 11 C7.35 11 5.7 11 4 11 C3.32591692 9.73308493 2.66099503 8.46129251 2 7.1875 C1.62875 6.47980469 1.2575 5.77210938 0.875 5.04296875 C0 3 0 3 0 0 Z " fill="#1C1C1C" transform="translate(438,348)"/>
<path d="M0 0 C0.66 0 1.32 0 2 0 C1.39175476 4.13606764 0.25235406 7.46058648 -2 11 C-4.6875 11.875 -4.6875 11.875 -7 12 C-5.62159784 9.16661778 -4.13581614 6.44311194 -2.5 3.75 C-1.86578125 2.69039063 -1.86578125 2.69039063 -1.21875 1.609375 C-0.61546875 0.81273437 -0.61546875 0.81273437 0 0 Z " fill="#1C1C1C" transform="translate(161,348)"/>
<path d="M0 0 C2 1 2 1 3.10546875 3.65234375 C3.64107422 5.27849609 3.64107422 5.27849609 4.1875 6.9375 C4.55230469 8.01902344 4.91710937 9.10054688 5.29296875 10.21484375 C6 13 6 13 5 15 C4.01 15.495 4.01 15.495 3 16 C2.49193553 14.27318563 1.99389533 12.54342021 1.5 10.8125 C1.08234375 9.36810547 1.08234375 9.36810547 0.65625 7.89453125 C0.03322392 5.14654124 -0.12302812 2.80401584 0 0 Z " fill="#3D3D3D" transform="translate(414,330)"/>
<path d="M0 0 C0.66 0 1.32 0 2 0 C3.98 3.63 5.96 7.26 8 11 C6.68 11.33 5.36 11.66 4 12 C3.32645501 10.56570999 2.66140299 9.12742943 2 7.6875 C1.62875 6.88699219 1.2575 6.08648437 0.875 5.26171875 C0 3 0 3 0 0 Z " fill="#161616" transform="translate(461,312)"/>
<path d="M0 0 C3.39417765 3.12621626 5.6062718 5.56541027 7 10 C5.02 10.99 5.02 10.99 3 12 C2.49166409 10.75336669 1.99368855 9.50250613 1.5 8.25 C1.2215625 7.55390625 0.943125 6.8578125 0.65625 6.140625 C0 4 0 4 0 0 Z " fill="#E1E1E1" transform="translate(407,305)"/>
<path d="M0 0 C1.3921875 0.2784375 1.3921875 0.2784375 2.8125 0.5625 C6.01343771 1.24123881 6.01343771 1.24123881 9 0 C8 3 8 3 6 4 C6 5.65 6 7.3 6 9 C4.68 8.34 3.36 7.68 2 7 C2.66 5.68 3.32 4.36 4 3 C2.35 3.33 0.7 3.66 -1 4 C-0.67 2.68 -0.34 1.36 0 0 Z " fill="#363636" transform="translate(364,290)"/>
<path d="M0 0 C2.46800047 1.15173355 4.04783565 2.04783565 6 4 C5.01 4.33 4.02 4.66 3 5 C3 5.66 3 6.32 3 7 C3.66 7 4.32 7 5 7 C5 7.66 5 8.32 5 9 C4.01 9 3.02 9 2 9 C2 8.34 2 7.68 2 7 C1.01 6.67 0.02 6.34 -1 6 C-1.8125 4.0625 -1.8125 4.0625 -2 2 C-1.34 1.34 -0.68 0.68 0 0 Z " fill="#7E7E7E" transform="translate(224,244)"/>
<path d="M0 0 C-0.33 0.99 -0.66 1.98 -1 3 C-1.66 3 -2.32 3 -3 3 C-3.33 3.66 -3.66 4.32 -4 5 C-4.66 4.67 -5.32 4.34 -6 4 C-6 4.66 -6 5.32 -6 6 C-5.34 6.33 -4.68 6.66 -4 7 C-5.32 6.67 -6.64 6.34 -8 6 C-7.67 4.68 -7.34 3.36 -7 2 C-7.66 1.67 -8.32 1.34 -9 1 C-5.57367167 -0.61798838 -3.61944899 -1.34053666 0 0 Z " fill="#BEBEBE" transform="translate(362,244)"/>
<path d="M0 0 C4.03304413 4.5830047 5.36552401 9.96885389 5 16 C3 15 3 15 2.1484375 12.890625 C1.89320313 12.01921875 1.63796875 11.1478125 1.375 10.25 C0.98441406 8.95835937 0.98441406 8.95835937 0.5859375 7.640625 C0.00060132 5.00270994 -0.10651736 2.69198424 0 0 Z " fill="#E5E5E5" transform="translate(403,239)"/>
<path d="M0 0 C1.3805087 3.76668598 0.59568159 6.44789173 -0.4375 10.25 C-0.72496094 11.32765625 -1.01242188 12.4053125 -1.30859375 13.515625 C-1.53675781 14.33546875 -1.76492187 15.1553125 -2 16 C-3.38592445 13.72977301 -4.03309948 12.43405459 -3.828125 9.74609375 C-3.63734375 8.98425781 -3.4465625 8.22242188 -3.25 7.4375 C-3.06953125 6.67308594 -2.8890625 5.90867187 -2.703125 5.12109375 C-2 3 -2 3 0 0 Z " fill="#393939" transform="translate(185,334)"/>
<path d="M0 0 C-0.99 0.495 -0.99 0.495 -2 1 C-1.01 1.66 -0.02 2.32 1 3 C-3.95 3 -8.9 3 -14 3 C-13.67 2.01 -13.34 1.02 -13 0 C-11.39679026 -0.19551338 -9.79237014 -0.38111983 -8.1875 -0.5625 C-7.29417969 -0.66691406 -6.40085937 -0.77132813 -5.48046875 -0.87890625 C-3 -1 -3 -1 0 0 Z " fill="#949494" transform="translate(317,313)"/>
<path d="M0 0 C0.66 0 1.32 0 2 0 C1.33501617 4.38889325 -0.18757677 7.9811485 -2 12 C-2.99 12 -3.98 12 -5 12 C-5 8.55639368 -4.20408468 7.25204608 -2.5 4.3125 C-2.0359375 3.50425781 -1.571875 2.69601562 -1.09375 1.86328125 C-0.7328125 1.24839844 -0.371875 0.63351562 0 0 Z " fill="#1A1A1A" transform="translate(113,308)"/>
<path d="M0 0 C0.66 0.66 1.32 1.32 2 2 C1.24327813 4.31802155 0.47065692 6.6284213 -0.3125 8.9375 C-0.52583984 9.59685547 -0.73917969 10.25621094 -0.95898438 10.93554688 C-1.55041093 12.65686297 -2.26863827 14.33331932 -3 16 C-3.99 16.33 -4.98 16.66 -6 17 C-4.13236819 11.27789404 -2.14710968 5.62338249 0 0 Z " fill="#2D2D2D" transform="translate(194,241)"/>
<path d="M0 0 C0.99 0.33 1.98 0.66 3 1 C0.69 4.63 -1.62 8.26 -4 12 C-4.66 11.67 -5.32 11.34 -6 11 C-4.54955729 6.89041233 -2.48889248 3.56741255 0 0 Z " fill="#2A2A2A" transform="translate(165,286)"/>
<path d="M0 0 C0.99 -0.33 1.98 -0.66 3 -1 C3.66 -0.67 4.32 -0.34 5 0 C5 0.99 5 1.98 5 3 C1.57056481 4.18771723 -0.37784675 3.80226223 -3.75 2.5625 C-4.54921875 2.27503906 -5.3484375 1.98757813 -6.171875 1.69140625 C-6.77515625 1.46324219 -7.3784375 1.23507812 -8 1 C-8 0.67 -8 0.34 -8 0 C-4.71303767 -0.79953138 -3.28976808 -1.09658936 0 0 Z " fill="#BCBCBC" transform="translate(338,287)"/>
<path d="M0 0 C0.33 0.66 0.66 1.32 1 2 C0.10333658 4.24310013 -0.89146683 6.44754321 -1.9375 8.625 C-2.50339844 9.81351562 -3.06929687 11.00203125 -3.65234375 12.2265625 C-4.09707031 13.14179688 -4.54179687 14.05703125 -5 15 C-5.99 15 -6.98 15 -8 15 C-6.62712658 11.30123909 -4.93644547 8.0485524 -2.875 4.6875 C-2.33617187 3.80449219 -1.79734375 2.92148437 -1.2421875 2.01171875 C-0.83226562 1.34785156 -0.42234375 0.68398437 0 0 Z " fill="#232323" transform="translate(184,254)"/>
<path d="M0 0 C0.99 0.33 1.98 0.66 3 1 C2.01 4.63 1.02 8.26 0 12 C-0.99 11.67 -1.98 11.34 -3 11 C-2.01 7.37 -1.02 3.74 0 0 Z " fill="#C7C7C7" transform="translate(192,252)"/>
<path d="M0 0 C0.66 0 1.32 0 2 0 C0.75865893 3.43755988 -0.4434923 6.34880683 -3 9 C-5.6875 9.75 -5.6875 9.75 -8 10 C-7.04367001 8.70684939 -6.08486149 7.41553147 -5.125 6.125 C-4.59132812 5.40570313 -4.05765625 4.68640625 -3.5078125 3.9453125 C-2 2 -2 2 0 0 Z " fill="#232323" transform="translate(153,344)"/>
<path d="M0 0 C0.33 0 0.66 0 1 0 C0.47462276 5.0302076 -0.10594786 10.01885239 -1 15 C-1.33 13.68 -1.66 12.36 -2 11 C-2.66 11 -3.32 11 -4 11 C-3.52269162 9.5410574 -3.04308958 8.08286504 -2.5625 6.625 C-2.29566406 5.81289063 -2.02882812 5.00078125 -1.75390625 4.1640625 C-1 2 -1 2 0 0 Z " fill="#E5E5E5" transform="translate(195,309)"/>
<path d="M0 0 C1.5625 1.25 1.5625 1.25 3 3 C2.6875 5.1875 2.6875 5.1875 2 7 C0.68 7 -0.64 7 -2 7 C-2.33 5.02 -2.66 3.04 -3 1 C-2.01 0.67 -1.02 0.34 0 0 Z " fill="#CDCDCD" transform="translate(377,283)"/>
<path d="M0 0 C0.66 0 1.32 0 2 0 C2 3.63 2 7.26 2 11 C1.01 11.33 0.02 11.66 -1 12 C-1.02698189 10.37509046 -1.04638757 8.75005367 -1.0625 7.125 C-1.07410156 6.22007812 -1.08570313 5.31515625 -1.09765625 4.3828125 C-1 2 -1 2 0 0 Z " fill="#CACACA" transform="translate(304,256)"/>
<path d="M0 0 C1.14229879 3.42689636 0.90861076 5.61102218 0.5625 9.1875 C0.46066406 10.27417969 0.35882813 11.36085938 0.25390625 12.48046875 C0.12822266 13.72763672 0.12822266 13.72763672 0 15 C-0.66 13.68 -1.32 12.36 -2 11 C-2.99 11.495 -2.99 11.495 -4 12 C-3.52494322 10.18641846 -3.04483958 8.37415821 -2.5625 6.5625 C-2.29566406 5.55316406 -2.02882813 4.54382813 -1.75390625 3.50390625 C-1 1 -1 1 0 0 Z " fill="#2B2B2B" transform="translate(115,332)"/>
<path d="M0 0 C0 0.99 0 1.98 0 3 C-1.75 4.60546875 -1.75 4.60546875 -4 6.1875 C-4.7425 6.71730469 -5.485 7.24710937 -6.25 7.79296875 C-6.8275 8.19128906 -7.405 8.58960938 -8 9 C-8.33 8.34 -8.66 7.68 -9 7 C-8.67 6.34 -8.34 5.68 -8 5 C-8.66 4.67 -9.32 4.34 -10 4 C-9.36191406 3.79503906 -8.72382813 3.59007812 -8.06640625 3.37890625 C-7.24011719 3.10949219 -6.41382813 2.84007812 -5.5625 2.5625 C-4.73878906 2.29566406 -3.91507812 2.02882813 -3.06640625 1.75390625 C-1.03780412 1.17844506 -1.03780412 1.17844506 0 0 Z " fill="#E8E8E8" transform="translate(370,279)"/>
<path d="M0 0 C3.24299151 2.38957269 5.50902342 4.2047869 7 8 C5.02 8.99 5.02 8.99 3 10 C0 3.375 0 3.375 0 0 Z " fill="#E2E2E2" transform="translate(409,236)"/>
<path d="M0 0 C0 1.65 0 3.3 0 5 C-2 6 -4 7 -6 8 C-6.33 6.68 -6.66 5.36 -7 4 C-2.25 0 -2.25 0 0 0 Z " fill="#484848" transform="translate(392,291)"/>
<path d="M0 0 C1.1446875 0.12375 1.1446875 0.12375 2.3125 0.25 C0.34821172 4.17857656 -3.08965791 6.85143861 -6.6875 9.25 C-6.04078163 4.59362773 -5.23074478 0.48658091 0 0 Z " fill="#202020" transform="translate(189.6875,292.75)"/>
<path d="M0 0 C2.4375 0.8125 2.4375 0.8125 5 2 C5.33 2.99 5.66 3.98 6 5 C5.01 6.485 5.01 6.485 4 8 C3.34 7.34 2.68 6.68 2 6 C1.01 5.67 0.02 5.34 -1 5 C-0.67 3.35 -0.34 1.7 0 0 Z " fill="#333333" transform="translate(379,289)"/>
<path d="M0 0 C1.15224028 0.92961422 2.29659176 1.8690125 3.4375 2.8125 C4.07558594 3.33457031 4.71367187 3.85664063 5.37109375 4.39453125 C7 6 7 6 8 9 C7.01 10.485 7.01 10.485 6 12 C4.99466333 10.37829621 3.99588093 8.75252763 3 7.125 C2.443125 6.22007812 1.88625 5.31515625 1.3125 4.3828125 C0 2 0 2 0 0 Z " fill="#D4D4D4" transform="translate(410,286)"/>
<path d="M0 0 C1 2 1 2 0.75 4.0625 C0.5025 4.701875 0.255 5.34125 0 6 C-0.99 6.33 -1.98 6.66 -3 7 C-3.66 6.34 -4.32 5.68 -5 5 C-5 3.68 -5 2.36 -5 1 C-3.35 0.67 -1.7 0.34 0 0 Z " fill="#ADADAD" transform="translate(299,286)"/>
<path d="M0 0 C0 3.77910478 -0.99703962 4.46106101 -3.5 7.1875 C-4.47453125 8.26064453 -4.47453125 8.26064453 -5.46875 9.35546875 C-5.9740625 9.89816406 -6.479375 10.44085938 -7 11 C-7 8.66666667 -7 6.33333333 -7 4 C-4.68143083 2.45428722 -2.49361571 1.20381448 0 0 Z " fill="#9E9E9E" transform="translate(166,258)"/>
<path d="M0 0 C0.66 0 1.32 0 2 0 C2 4.95 2 9.9 2 15 C1.67 15 1.34 15 1 15 C1 13.02 1 11.04 1 9 C0.34 9 -0.32 9 -1 9 C-0.67 6.03 -0.34 3.06 0 0 Z " fill="#565656" transform="translate(376,243)"/>
<path d="M0 0 C0.66 0 1.32 0 2 0 C3.625 2.5 3.625 2.5 5 5 C5.66 4.34 6.32 3.68 7 3 C7.33 3.66 7.66 4.32 8 5 C7.67 5.66 7.34 6.32 7 7 C6.34 7 5.68 7 5 7 C4.67 7.66 4.34 8.32 4 9 C0 2.25 0 2.25 0 0 Z M9 1 C9 4 9 4 9 4 Z " fill="#D6D6D6" transform="translate(372,230)"/>
<path d="M0 0 C0 0.66 0 1.32 0 2 C-5.23471686 2.75612577 -9.77254141 3.2063366 -15 2 C-15 1.67 -15 1.34 -15 1 C-9.94997778 -0.03590199 -5.12583611 -0.10251672 0 0 Z " fill="#BEBEBE" transform="translate(386,301)"/>
<path d="M0 0 C1.33841672 0.31229724 2.67139075 0.64830932 4 1 C4.99 1 5.98 1 7 1 C6.67 2.32 6.34 3.64 6 5 C3.03 4.505 3.03 4.505 0 4 C-0.33 3.01 -0.66 2.02 -1 1 C-0.67 0.67 -0.34 0.34 0 0 Z " fill="#3E3E3E" transform="translate(396,294)"/>
<path d="M0 0 C4.99162787 0.47996422 6.85035583 0.88776687 11 4 C6.71 3.67 2.42 3.34 -2 3 C-1.34 2.67 -0.68 2.34 0 2 C0 1.34 0 0.68 0 0 Z " fill="#D3D3D3" transform="translate(362,297)"/>
<path d="M0 0 C0.33 0.66 0.66 1.32 1 2 C1.99 2.33 2.98 2.66 4 3 C1.35261084 4.4606285 0.10551666 5 -3 5 C-3.66 6.32 -4.32 7.64 -5 9 C-5.66 8.67 -6.32 8.34 -7 8 C-5.60746468 4.51866169 -4.36823784 3.52113967 -1 2 C-0.67 1.34 -0.34 0.68 0 0 Z " fill="#C0C0C0" transform="translate(358,263)"/>
<path d="M0 0 C3.51716303 3.51716303 3.54676163 5.19567333 4 10 C3.01 10 2.02 10 1 10 C0.67 6.7 0.34 3.4 0 0 Z " fill="#2A2A2A" transform="translate(418,344)"/>
<path d="M0 0 C0.66 0.99 1.32 1.98 2 3 C0.35 5.64 -1.3 8.28 -3 11 C-3.66 10.34 -4.32 9.68 -5 9 C-3.35 6.03 -1.7 3.06 0 0 Z " fill="#2D2D2D" transform="translate(167,338)"/>
<path d="M0 0 C2.52394612 3.12488567 4.39701907 6.31314387 6 10 C5 12 5 12 3 13 C2.49487756 11.39743892 1.99608373 9.79288208 1.5 8.1875 C1.2215625 7.29417969 0.943125 6.40085937 0.65625 5.48046875 C0 3 0 3 0 0 Z " fill="#323232" transform="translate(423,335)"/>
<path d="M0 0 C3.26008643 3.16952847 6.22237877 6.39937989 9 10 C8.34 10.66 7.68 11.32 7 12 C5.82767315 10.3790787 4.6622923 8.75313167 3.5 7.125 C2.8503125 6.22007812 2.200625 5.31515625 1.53125 4.3828125 C0 2 0 2 0 0 Z " fill="#282828" transform="translate(441,321)"/>
<path d="M0 0 C2.6465335 2.6465335 3.59941997 5.56221264 5 9 C4.01 9.495 4.01 9.495 3 10 C0.98863724 7.44008376 -0.62845496 4.95409701 -2 2 C-1.34 2 -0.68 2 0 2 C0 1.34 0 0.68 0 0 Z " fill="#2D2D2D" transform="translate(410,297)"/>
<path d="M0 0 C2.32947183 2.11770166 3.88750845 4.03335588 5 7 C4.67 7.99 4.34 8.98 4 10 C3.13342884 8.90554162 2.28207276 7.79902219 1.4375 6.6875 C0.96183594 6.07261719 0.48617188 5.45773437 -0.00390625 4.82421875 C-0.33261719 4.22222656 -0.66132813 3.62023437 -1 3 C-0.67 2.01 -0.34 1.02 0 0 Z " fill="#1E1E1E" transform="translate(424,284)"/>
<path d="M0 0 C0.33 0.66 0.66 1.32 1 2 C0.0625 4.125 0.0625 4.125 -1 6 C-0.01 5.67 0.98 5.34 2 5 C1.34 6.32 0.68 7.64 0 9 C-0.99 8.67 -1.98 8.34 -3 8 C-3 5.69 -3 3.38 -3 1 C-2.01 0.67 -1.02 0.34 0 0 Z " fill="#4A4A4A" transform="translate(353,271)"/>
<path d="M0 0 C1.32 0 2.64 0 4 0 C4 0.66 4 1.32 4 2 C-0.15267176 5.11450382 -0.15267176 5.11450382 -3.3125 4.6875 C-3.869375 4.460625 -4.42625 4.23375 -5 4 C-5 3.34 -5 2.68 -5 2 C-3.68 2 -2.36 2 -1 2 C-0.67 1.34 -0.34 0.68 0 0 Z " fill="#7E7E7E" transform="translate(281,253)"/>
<path d="M0 0 C1 2 1 2 0.25 4.5 C-1 7 -1 7 -4 9 C-4 8.01 -4 7.02 -4 6 C-4.66 5.67 -5.32 5.34 -6 5 C-4.02 3.35 -2.04 1.7 0 0 Z " fill="#C6C6C6" transform="translate(180,238)"/>
<path d="M0 0 C0.66 0 1.32 0 2 0 C5 5.75 5 5.75 5 8 C4.34 8 3.68 8 3 8 C2.67 8.99 2.34 9.98 2 11 C1.34 7.37 0.68 3.74 0 0 Z " fill="#D5D5D5" transform="translate(404,309)"/>
<path d="M0 0 C0.99 0.33 1.98 0.66 3 1 C1.59678158 5.20965525 -0.8164084 7.968008 -4 11 C-3.39301257 6.87248551 -1.96189209 3.6678852 0 0 Z " fill="#1B1B1B" transform="translate(190,297)"/>
<path d="M0 0 C3.28788824 3.11016455 5.83735988 6.01618925 8 10 C7.34 10.66 6.68 11.32 6 12 C4.99466333 10.37829621 3.99588093 8.75252763 3 7.125 C2.443125 6.22007812 1.88625 5.31515625 1.3125 4.3828125 C0 2 0 2 0 0 Z " fill="#292929" transform="translate(479,298)"/>
<path d="M0 0 C0.66 0 1.32 0 2 0 C0.71631232 3.85106305 -1.34832751 6.17416375 -5 8 C-5.99 7.34 -6.98 6.68 -8 6 C-7.05125 5.38125 -6.1025 4.7625 -5.125 4.125 C-2.05554891 2.18029031 -2.05554891 2.18029031 0 0 Z " fill="#2B2B2B" transform="translate(362,287)"/>
<path d="M0 0 C0.33 0 0.66 0 1 0 C0.67 3.3 0.34 6.6 0 10 C-0.99 9.34 -1.98 8.68 -3 8 C-2.25 2.25 -2.25 2.25 0 0 Z " fill="#DFDFDF" transform="translate(190,262)"/>
<path d="M0 0 C0.33 0 0.66 0 1 0 C1.25 2.75 1.25 2.75 1 6 C-1 8.375 -1 8.375 -3 10 C-3.99 9.34 -4.98 8.68 -6 8 C-2.25 5 -2.25 5 0 5 C0 3.35 0 1.7 0 0 Z " fill="#FAFAFA" transform="translate(287,249)"/>
<path d="M0 0 C0 3.39593478 -0.52165948 4.06619881 -2.5 6.6875 C-2.9640625 7.31011719 -3.428125 7.93273437 -3.90625 8.57421875 C-4.2671875 9.04472656 -4.628125 9.51523437 -5 10 C-5.99 9.67 -6.98 9.34 -8 9 C-5.36 6.03 -2.72 3.06 0 0 Z " fill="#232323" transform="translate(159,321)"/>
<path d="M0 0 C2.64752004 2.57784846 4.94432065 4.91648098 7 8 C5.68 8.33 4.36 8.66 3 9 C2.01 6.03 1.02 3.06 0 0 Z " fill="#DDDDDD" transform="translate(409,293)"/>
<path d="M0 0 C1.2077558 3.62326739 0.54311128 4.64146369 -1 8 C-4 8 -4 8 -6 7 C-4.02 4.69 -2.04 2.38 0 0 Z " fill="#DCDCDC" transform="translate(190,294)"/>
<path d="M0 0 C0 3.64478912 -0.85802506 5.09303401 -3 8 C-5.1875 8.8125 -5.1875 8.8125 -7 9 C-5.44499019 5.18315774 -2.96404505 2.80804268 0 0 Z " fill="#CDCDCD" transform="translate(190,286)"/>
<path d="M0 0 C-0.99 0.33 -1.98 0.66 -3 1 C-3.33 1.66 -3.66 2.32 -4 3 C-6.0625 3.625 -6.0625 3.625 -8 4 C-8 3.34 -8 2.68 -8 2 C-8.66 1.34 -9.32 0.68 -10 0 C-6.42355152 -1.2380014 -3.66305234 -0.74926071 0 0 Z " fill="#393939" transform="translate(250,284)"/>
<path d="M0 0 C0.99 0 1.98 0 3 0 C3 0.66 3 1.32 3 2 C3.66 2.33 4.32 2.66 5 3 C4.01 3.495 4.01 3.495 3 4 C2.34 3.67 1.68 3.34 1 3 C1 5.97 1 8.94 1 12 C0.67 12 0.34 12 0 12 C0 8.04 0 4.08 0 0 Z " fill="#DADADA" transform="translate(274,274)"/>
<path d="M0 0 C-0.33 0.66 -0.66 1.32 -1 2 C-2.32 2 -3.64 2 -5 2 C-5 2.66 -5 3.32 -5 4 C-5.66 4 -6.32 4 -7 4 C-7.33 4.66 -7.66 5.32 -8 6 C-8 4.35 -8 2.7 -8 1 C-5.29120665 -0.35439668 -2.99066732 -0.06501451 0 0 Z " fill="#BBBBBB" transform="translate(401,226)"/>
<path d="M0 0 C0.33 0 0.66 0 1 0 C1 3.63 1 7.26 1 11 C-0.32 11.33 -1.64 11.66 -3 12 C-2.01 8.04 -1.02 4.08 0 0 Z " fill="#2D2D2D" transform="translate(402,342)"/>
<path d="M0 0 C-0.33 0.99 -0.66 1.98 -1 3 C-4.0625 4.1875 -4.0625 4.1875 -7 5 C-7.66 4.34 -8.32 3.68 -9 3 C-2.25 0 -2.25 0 0 0 Z " fill="#D0D0D0" transform="translate(345,295)"/>
<path d="M0 0 C1.98 0 3.96 0 6 0 C5.67 1.32 5.34 2.64 5 4 C3.35 4 1.7 4 0 4 C0 2.68 0 1.36 0 0 Z " fill="#141414" transform="translate(362,293)"/>
<path d="M0 0 C0.66 0.33 1.32 0.66 2 1 C2 1.66 2 2.32 2 3 C2.99 3 3.98 3 5 3 C5 3.66 5 4.32 5 5 C2.125 5.125 2.125 5.125 -1 5 C-1.66 4.34 -2.32 3.68 -3 3 C-2.01 2.01 -1.02 1.02 0 0 Z " fill="#CBCBCB" transform="translate(344,288)"/>
<path d="M0 0 C1.9375 0.8125 1.9375 0.8125 4 2 C4.33 2.99 4.66 3.98 5 5 C4.34 5 3.68 5 3 5 C2.67 5.99 2.34 6.98 2 8 C1.67 8 1.34 8 1 8 C0.67 5.36 0.34 2.72 0 0 Z " fill="#DDDDDD" transform="translate(377,263)"/>
<path d="M0 0 C2.61885488 2.36944013 4.41866551 4.83733102 6 8 C5.67 8.99 5.34 9.98 5 11 C2.56097476 8.56097476 1.40821408 6.13647681 0 3 C0 2.01 0 1.02 0 0 Z " fill="#2B2B2B" transform="translate(416,254)"/>
<path d="M0 0 C0.33 0 0.66 0 1 0 C1 1.98 1 3.96 1 6 C0.01 6.495 0.01 6.495 -1 7 C-1.66 7.99 -2.32 8.98 -3 10 C-2.25 3.375 -2.25 3.375 0 0 Z " fill="#D7D7D7" transform="translate(393,321)"/>
<path d="M0 0 C0.66 0.99 1.32 1.98 2 3 C0.35 5.31 -1.3 7.62 -3 10 C-3.66 9.34 -4.32 8.68 -5 8 C-3.35 5.36 -1.7 2.72 0 0 Z " fill="#2D2D2D" transform="translate(182,300)"/>
<path d="M0 0 C4.42857143 5.14285714 4.42857143 5.14285714 5 9 C2.5 6.75 2.5 6.75 0 4 C0 2.68 0 1.36 0 0 Z " fill="#252525" transform="translate(417,299)"/>
<path d="M0 0 C2.52588702 2.36292656 3.88820837 3.66462511 5 7 C4.34 7.66 3.68 8.32 3 9 C1.68 6.36 0.36 3.72 -1 1 C-0.67 0.67 -0.34 0.34 0 0 Z " fill="#272727" transform="translate(445,302)"/>
<path d="M0 0 C0.33 1.32 0.66 2.64 1 4 C0.01 3.67 -0.98 3.34 -2 3 C-1.34 2.01 -0.68 1.02 0 0 Z M-4 3 C-2 4 -2 4 -1 6 C-2.65 6.33 -4.3 6.66 -6 7 C-5.34 5.68 -4.68 4.36 -4 3 Z " fill="#C7C7C7" transform="translate(251,249)"/>
<path d="M0 0 C3.14624993 -0.26218749 4.61837017 -0.24754367 7.3125 1.5 C8.1478125 2.2425 8.1478125 2.2425 9 3 C6.1875 3.6875 6.1875 3.6875 3 4 C1.125 2.625 1.125 2.625 0 1 C0 0.67 0 0.34 0 0 Z " fill="#DEDEDE" transform="translate(226,248)"/>
<path d="M0 0 C0.99 0.33 1.98 0.66 3 1 C1 4 1 4 -0.9375 4.6875 C-3 5 -3 5 -6 5 C-5.195625 4.360625 -4.39125 3.72125 -3.5625 3.0625 C-1.7249496 1.59396498 -1.7249496 1.59396498 0 0 Z " fill="#C8C8C8" transform="translate(314,244)"/>
<path d="M0 0 C2.34058637 2.12780579 3.70700306 4.11562221 5 7 C4.34 7.66 3.68 8.32 3 9 C1.68 6.36 0.36 3.72 -1 1 C-0.67 0.67 -0.34 0.34 0 0 Z " fill="#2C2C2C" transform="translate(457,305)"/>
<path d="M0 0 C2.0625 0.4375 2.0625 0.4375 4 1 C4 1.66 4 2.32 4 3 C2.68 3 1.36 3 0 3 C0 3.66 0 4.32 0 5 C-0.66 5 -1.32 5 -2 5 C-1.125 1.125 -1.125 1.125 0 0 Z " fill="#BCBCBC" transform="translate(392,295)"/>
<path d="M0 0 C0.66 0.33 1.32 0.66 2 1 C1.1875 3.4375 1.1875 3.4375 0 6 C-0.99 6.33 -1.98 6.66 -3 7 C-1.125 1.125 -1.125 1.125 0 0 Z " fill="#0E0E0E" transform="translate(178,280)"/>
<path d="M0 0 C0.66 0.33 1.32 0.66 2 1 C1.49396008 3.16874252 1.00016187 4.99967627 0 7 C-0.99 7 -1.98 7 -3 7 C-1.125 2.25 -1.125 2.25 0 0 Z " fill="#202020" transform="translate(169,279)"/>
<path d="M0 0 C0.66 0 1.32 0 2 0 C2 0.66 2 1.32 2 2 C2.66 2.33 3.32 2.66 4 3 C3.01 3.495 3.01 3.495 2 4 C1.34227572 7.02934491 1.34227572 7.02934491 1 10 C0.67 10 0.34 10 0 10 C-0.19412181 8.52168779 -0.38012131 7.04230684 -0.5625 5.5625 C-0.66691406 4.73878906 -0.77132812 3.91507813 -0.87890625 3.06640625 C-0.91886719 2.38449219 -0.95882812 1.70257813 -1 1 C-0.67 0.67 -0.34 0.34 0 0 Z " fill="#949494" transform="translate(215,250)"/>
<path d="M0 0 C0.99 0.495 0.99 0.495 2 1 C2.625 3.5625 2.625 3.5625 3 6 C2.34 6 1.68 6 1 6 C0.67 7.32 0.34 8.64 0 10 C0 6.7 0 3.4 0 0 Z " fill="#252525" transform="translate(486,335)"/>
<path d="M0 0 C0.99 0.495 0.99 0.495 2 1 C2 1.66 2 2.32 2 3 C3.32 3.33 4.64 3.66 6 4 C5.360625 4.12375 4.72125 4.2475 4.0625 4.375 C3.0415625 4.684375 3.0415625 4.684375 2 5 C1.67 5.66 1.34 6.32 1 7 C0.67 4.69 0.34 2.38 0 0 Z " fill="#E5E5E5" transform="translate(332,296)"/>
<path d="M0 0 C0 0.66 0 1.32 0 2 C-3.37462715 1.45276317 -5.08235 0.9451 -8 -1 C-4.37673261 -2.2077558 -3.35853631 -1.54311128 0 0 Z " fill="#2E2E2E" transform="translate(385,298)"/>
<path d="M0 0 C1.32 0.33 2.64 0.66 4 1 C4 1.99 4 2.98 4 4 C1.03 3.505 1.03 3.505 -2 3 C-1.34 2.01 -0.68 1.02 0 0 Z " fill="#EAEAEA" transform="translate(358,295)"/>
<path d="M0 0 C0.33 0.99 0.66 1.98 1 3 C-0.32 4.32 -1.64 5.64 -3 7 C-3.33 6.01 -3.66 5.02 -4 4 C-2.68 2.68 -1.36 1.36 0 0 Z " fill="#121212" transform="translate(174,274)"/>
<path d="M0 0 C1.32 0 2.64 0 4 0 C3.25 2.4375 3.25 2.4375 2 5 C-0.125 5.8125 -0.125 5.8125 -2 6 C-1.67 5.01 -1.34 4.02 -1 3 C-0.34 3 0.32 3 1 3 C0.67 2.01 0.34 1.02 0 0 Z " fill="#DDDDDD" transform="translate(180,234)"/>
</svg>
